SplineFontDB: 3.2
FontName: AlfabetoSER-LIBRAS
FullName: Alfabeto SER-LIBRAS
FamilyName: SER-LIBRAS
Weight: Regular
Copyright: Copyright (c) 2023
UComments: "2023-11-21: Created with FontForge (http://fontforge.org)"
Version: 1.0.3
ItalicAngle: 0
UnderlinePosition: -100
UnderlineWidth: 50
Ascent: 800
Descent: 200
InvalidEm: 0
LayerCount: 2
Layer: 0 0 "Back" 1
Layer: 1 0 "Fore" 0
XUID: [1021 717 -767625607 23898]
StyleMap: 0x0000
FSType: 0
OS2Version: 0
OS2_WeightWidthSlopeOnly: 0
OS2_UseTypoMetrics: 1
CreationTime: 1700600676
ModificationTime: 1728159399
OS2TypoAscent: 0
OS2TypoAOffset: 1
OS2TypoDescent: 0
OS2TypoDOffset: 1
OS2TypoLinegap: 90
OS2WinAscent: 0
OS2WinAOffset: 1
OS2WinDescent: 0
OS2WinDOffset: 1
HheadAscent: 0
HheadAOffset: 1
HheadDescent: 0
HheadDOffset: 1
MarkAttachClasses: 1
DEI: 91125
Encoding: UnicodeFull
UnicodeInterp: none
NameList: AGL For New Fonts
DisplaySize: -48
AntiAlias: 1
FitToEm: 0
WinInfo: 38 38 13
BeginPrivate: 0
EndPrivate
BeginChars: 1114112 144

StartChar: A
Encoding: 65 65 0
Width: 669
Flags: W
HStem: 100 25<355.065 483.334> 475 25<59.0312 147.45 355.619 483.334>
VStem: 219 25<235.859 361.711> 594 25<235.859 364.141>
LayerCount: 2
Fore
SplineSet
419 500 m 4
 530 500 619 410 619 300 c 4
 619 190 530 100 419 100 c 4
 309 100 219 190 219 300 c 4
 219 321 223 341 228 360 c 4
 226 405 199 446 157 466 c 4
 140 474 122 478 104 478 c 4
 70 478 36 464 12 438 c 5
 0 450 l 5
 27 479 65 495 104 495 c 4
 124 495 145 490 164 481 c 4
 203 463 230 429 241 389 c 5
 273 455 341 500 419 500 c 4
419 475 m 0
 323 475 244 397 244 300 c 0
 244 203 323 125 419 125 c 0
 516 125 594 203 594 300 c 0
 594 397 516 475 419 475 c 0
EndSplineSet
Validated: 1
EndChar

StartChar: B
Encoding: 66 66 1
Width: 500
Flags: W
HStem: 100 25<187.062 314.141> 475 25<206.657 273.491> 648 25G<118 143 203 228 275 300 354 379>
VStem: 50 25<236.031 289 313.548 361.806> 118 25<469 648> 203 25<499 692> 275 25<498 693> 354 25<471 655> 425 25<235.859 363.598>
LayerCount: 2
Fore
SplineSet
275 693 m 1
 300 693 l 1
 300 494 l 1
 319 489 337 481 354 471 c 1
 354 655 l 1
 379 655 l 1
 379 453 l 1
 422 416 450 361 450 300 c 0
 450 190 360 100 250 100 c 0
 140 100 50 190 50 300 c 0
 50 360 76 414 118 450 c 1
 118 648 l 1
 143 648 l 1
 143 469 l 1
 161 481 182 489 203 494 c 1
 203 692 l 1
 228 692 l 1
 228 499 l 1
 235 500 243 500 250 500 c 0
 258 500 267 499 275 498 c 1
 275 693 l 1
250 475 m 0
 158 475 83 404 76 314 c 1
 199 306 l 1
 197 281 l 1
 75 289 l 1
 81 197 157 125 250 125 c 0
 347 125 425 203 425 300 c 0
 425 397 347 475 250 475 c 0
EndSplineSet
Validated: 1
EndChar

StartChar: C
Encoding: 67 67 2
Width: 458
Flags: W
HStem: 100 25<143.746 272.812> 475 25<144.513 271.819>
VStem: 383 25<235.666 364.734>
LayerCount: 2
Fore
SplineSet
408 300 m 0
 408 189 319 100 209 100 c 0
 155 100 106 121 70 156 c 1
 87 174 l 1
 118 144 161 125 209 125 c 0
 305 125 383 203 383 300 c 0
 383 398 303 475 209 475 c 0
 152 475 102 448 70 407 c 1
 50 422 l 1
 87 469 144 500 209 500 c 0
 316 500 408 412 408 300 c 0
EndSplineSet
Validated: 1
EndChar

StartChar: D
Encoding: 68 68 3
Width: 500
Flags: W
VStem: 50 25<235.859 364.141> 147 13<265.501 332.43> 343 12<267.764 330.175> 425 25<236.031 364.312 397 751>
LayerCount: 2
Fore
SplineSet
250 475 m 0
 153 475 75 397 75 300 c 0
 75 203 153 125 250 125 c 0
 347 125 425 203 425 300 c 0
 425 397 347 475 250 475 c 0
160 299 m 0
 160 248 200 207 251 207 c 0
 302 207 343 248 343 299 c 0
 343 350 302 390 251 390 c 0
 200 390 160 350 160 299 c 0
147 299 m 0
 147 356 194 403 251 403 c 0
 308 403 355 356 355 299 c 0
 355 242 308 195 251 195 c 0
 194 195 147 242 147 299 c 0
425 751 m 1
 450 751 l 1
 450 300 l 2
 450 190 360 100 250 100 c 0
 140 100 50 190 50 300 c 0
 50 410 140 500 250 500 c 4
 325 500 391 459 425 397 c 1
 425 751 l 1
EndSplineSet
Validated: 1
EndChar

StartChar: E
Encoding: 69 69 4
Width: 500
Flags: W
HStem: 100 25<75 425> 296 25<75 216> 475 25<75 425>
VStem: 50 25<125 296 321 475> 425 25<125 475>
LayerCount: 2
Fore
SplineSet
50 500 m 1
 450 500 l 1
 450 100 l 1
 50 100 l 1
 50 296 l 1
 50 321 l 1
 50 500 l 1
75 475 m 1
 75 321 l 1
 216 321 l 1
 216 296 l 1
 75 296 l 1
 75 125 l 1
 425 125 l 1
 425 475 l 1
 75 475 l 1
EndSplineSet
Validated: 1
EndChar

StartChar: M
Encoding: 77 77 5
Width: 500
Flags: W
HStem: 100 25<185.688 245 270 314.312> 475 25<185.859 314.141>
VStem: 50 25<235.475 364.141> 139 25<-57 120> 245 25<-89 100> 333 25<-63 118> 425 25<236.156 364.141>
LayerCount: 2
Fore
SplineSet
250 500 m 0
 360 500 450 410 450 300 c 0
 450 229 413 167 358 132 c 1
 358 -63 l 1
 333 -63 l 1
 333 118 l 1
 313 109 292 103 270 101 c 1
 270 -89 l 1
 245 -89 l 1
 245 100 l 1
 216 101 188 108 164 120 c 1
 164 -57 l 1
 139 -57 l 1
 139 134 l 1
 85 170 50 231 50 300 c 0
 50 410 140 500 250 500 c 0
250 475 m 0
 153 475 75 397 75 300 c 0
 75 203 153 125 250 125 c 0
 347 125 425 203 425 300 c 0
 425 397 347 475 250 475 c 0
EndSplineSet
Validated: 1
EndChar

StartChar: F
Encoding: 70 70 6
Width: 726
Flags: W
HStem: 100 25<412.478 539.935> 475 25<411.836 506.67> 659 19G<410.2 437 548.807 578 675.069 706>
VStem: 276 25<271.869 339.511> 651 25<235.859 364.375>
LayerCount: 2
Fore
SplineSet
554 679 m 1
 578 672 l 1
 531 492 l 1
 563 483 591 466 614 444 c 1
 683 618 l 1
 706 609 l 1
 633 423 l 1
 660 389 676 347 676 300 c 0
 676 190 586 100 476 100 c 0
 406 100 344 136 308 191 c 1
 119 313 l 1
 4 294 l 1
 -0 319 l 1
 88 333 l 1
 41 365 l 1
 68 406 l 1
 161 346 l 1
 287 367 l 1
 304 415 339 455 385 478 c 1
 413 678 l 1
 437 674 l 1
 411 489 l 1
 432 496 453 500 476 500 c 0
 486 500 497 499 507 498 c 2
 554 679 l 1
476 475 m 0
 379 475 301 397 301 300 c 0
 301 203 379 125 476 125 c 0
 572 125 651 203 651 300 c 0
 651 397 572 475 476 475 c 0
280 340 m 1
 192 326 l 1
 278 270 l 1
 276 280 276 290 276 300 c 0
 276 314 277 327 280 340 c 1
EndSplineSet
Validated: 1
EndChar

StartChar: G
Encoding: 71 71 7
Width: 529
Flags: W
HStem: 100 25<215.666 343.935> 475 25<215.687 343.935> 506 194G<11 44.9841 107.412 134>
VStem: 80 25<236.031 301> 455 25<235.859 364.141>
LayerCount: 2
Fore
SplineSet
109 720 m 5
 134 718 l 5
 109 405 l 5
 145 462 208 500 280 500 c 4
 390 500 480 410 480 300 c 4
 480 190 390 100 280 100 c 4
 169 100 80 190 80 300 c 4
 80 301 l 6
 11 496 l 5
 38 506 l 5
 82 380 l 5
 109 720 l 5
280 475 m 0
 183 475 105 397 105 300 c 0
 105 203 183 125 280 125 c 0
 376 125 455 203 455 300 c 0
 455 397 376 475 280 475 c 0
EndSplineSet
Validated: 1
EndChar

StartChar: H
Encoding: 72 72 8
Width: 510
Flags: W
HStem: 0 15<258.04 341.639> 60 15<206 246.952 394.5 396.444> 100 25<235.859 364.141> 475 25<235.374 364.141> 594 20G<0 42.2727 108 134.75>
VStem: 100 25<235.859 364.215> 475 25<235.859 364.141>
LayerCount: 2
Fore
SplineSet
220 769 m 1
 245 766 l 1
 217 482 l 1
 242 494 270 500 300 500 c 0
 410 500 500 410 500 300 c 0
 500 190 410 100 300 100 c 0
 190 100 100 190 100 300 c 0
 100 340 112 377 132 408 c 1
 123 504 l 1
 0 594 l 1
 15 614 l 1
 120 537 l 1
 108 676 l 1
 133 678 l 1
 147 518 l 1
 192 485 l 1
 220 769 l 1
150 485 m 5
 154 437 l 5
 163 446 172 454 182 462 c 5
 150 485 l 5
300 475 m 0
 203 475 125 397 125 300 c 0
 125 203 203 125 300 125 c 0
 397 125 475 203 475 300 c 0
 475 397 397 475 300 475 c 0
429 89 m 1
 444 20 l 0
 444 19 444 19 444 18 c 0
 444 14 441 11 438 11 c 0
 437 11 437 11 436 11 c 0
 433 11 430 13 429 17 c 2
 420 62 l 1
 389 23 346 0 300 0 c 0
 254 0 211 23 181 62 c 1
 171 16 l 1
 171 13 168 11 164 11 c 0
 163 11 l 0
 159 11 157 14 157 18 c 0
 157 19 157 19 157 20 c 2
 171 89 l 1
 241 75 l 1
 244 74 247 71 247 68 c 0
 247 67 247 67 247 66 c 0
 246 63 243 60 239 60 c 0
 238 60 l 2
 194 69 l 1
 222 35 260 15 300 15 c 0
 321 15 368 21 406 69 c 1
 363 60 l 0
 362 60 362 60 361 60 c 0
 358 60 354 63 354 66 c 0
 354 67 354 67 354 68 c 0
 354 71 356 74 360 75 c 2
 429 89 l 1
EndSplineSet
Validated: 1
EndChar

StartChar: I
Encoding: 73 73 9
Width: 500
Flags: W
HStem: 100 25<185.666 313.822> 475 25<185.666 312.003> 559 20G<417 442.522> 559 20G<417 442.522>
VStem: 50 25<235.859 364.141> 417 25<401 578> 425 25<239.788 300 300.187 363.258 401 545.5>
LayerCount: 2
Fore
SplineSet
250 475 m 0xca
 153 475 75 397 75 300 c 0
 75 203 153 125 250 125 c 0
 346 125 424 203 425 299 c 2
 424 310 l 2
 419 402 343 475 250 475 c 0xca
442 579 m 1xec
 449 311 l 2
 450 307 450 304 450 300 c 2
 450 299 l 2xea
 449 189 360 100 250 100 c 0
 139 100 50 190 50 300 c 0
 50 410 139 500 250 500 c 0
 323 500 387 460 422 401 c 1
 417 578 l 1
 442 579 l 1xec
EndSplineSet
Validated: 1
EndChar

StartChar: J
Encoding: 74 74 10
Width: 663
Flags: W
HStem: 10.6997 25.3003<524.327 567.627> 100 25<185.859 314.141> 475 25<185.859 313.748> 559 20G<417 442.522> 559 20G<417 442.522>
VStem: 50 25<235.859 364.141> 417 25<401 578> 425 25<235.138 300 300.187 310 401 545.5> 479.76 24.99<46.6134 160.911> 538 24<154.097 191.875>
LayerCount: 2
Fore
SplineSet
442 579 m 1xf6c0
 449 311 l 2
 449 307 450 304 450 300 c 0
 450 299 l 1xf5c0
 450 189 360 100 250 100 c 0
 140 100 50 190 50 300 c 0
 50 410 140 500 250 500 c 0
 323 500 387 460 422 401 c 1
 417 578 l 1
 442 579 l 1xf6c0
250 475 m 1
 153 475 75 397 75 300 c 0
 75 203 153 125 250 125 c 0
 347 125 425 202 425 299 c 2
 424 310 l 2
 419 402 344 475 250 475 c 1
542 246 m 1
 562 169 l 2
 564 162 560 156 553 154 c 0
 546 152 540 156 538 163 c 2
 530 196 l 1
 521 174 511 147 507 121 c 0
 506 112 505 103 505 94 c 0
 505 86 506 78 507 71 c 0
 510 57 515 46 524 40 c 0
 531 35 537 35 544 36 c 0
 551 37 559 41 566 47 c 0
 580 58 591 73 591 73 c 2
 593 76 597 79 601 79 c 0
 604 79 606 77 608 76 c 0
 611 74 613 70 613 66 c 0
 613 63 612 61 611 59 c 2
 611 59 599 42 581 28 c 0
 572 21 561 15 549 12 c 0
 546 11 542 11 538 11 c 0
 529 11 519 14 510 20 c 0
 495 31 486 48 482 66 c 0
 480 73 480 81 480 89 c 0
 480 101 481 113 483 125 c 0
 488 156 498 187 509 211 c 1
 470 201 l 2
 463 199 457 203 455 210 c 0
 453 217 457 223 464 225 c 2
 542 246 l 1
EndSplineSet
Validated: 1
EndChar

StartChar: K
Encoding: 75 75 11
Width: 590
Flags: W
HStem: 100 25<285.859 414.334> 475 25<285.643 414.334> 594 20G<50 92.2727 158 184.75>
VStem: 150 25<235.859 364.215> 503 34<559 680> 525 25<235.859 364.141>
LayerCount: 2
Fore
SplineSet
520 742 m 1xf8
 557 680 l 1
 537 680 l 1
 537 559 l 1
 557 559 l 1
 520 496 l 1
 484 559 l 1
 503 559 l 1
 503 680 l 1
 484 680 l 1
 520 742 l 1xf8
270 769 m 1
 295 766 l 1
 267 482 l 1
 293 494 321 500 350 500 c 0
 461 500 550 410 550 300 c 0xf4
 550 190 461 100 350 100 c 0
 240 100 150 190 150 300 c 0
 150 340 162 377 182 408 c 1
 173 504 l 1
 50 594 l 1
 65 614 l 1
 170 537 l 1
 158 676 l 1
 183 678 l 1
 197 518 l 1
 243 485 l 1
 270 769 l 1
200 485 m 1
 204 437 l 1
 213 446 222 454 232 462 c 1
 200 485 l 1
350 475 m 0
 253 475 175 397 175 300 c 0
 175 203 253 125 350 125 c 0
 447 125 525 203 525 300 c 0
 525 397 447 475 350 475 c 0
EndSplineSet
Validated: 1
EndChar

StartChar: O
Encoding: 79 79 12
Width: 500
Flags: W
HStem: 100 25<185.859 314.141> 195 12<220.025 282.422> 390 13<217.776 284.693> 475 25<185.859 314.141>
VStem: 50 25<235.859 364.141> 147 13<265.307 332.224> 343 12<267.578 329.975> 425 25<235.859 364.141>
LayerCount: 2
Fore
SplineSet
75 300 m 0
 75 203 153 125 250 125 c 0
 347 125 425 203 425 300 c 0
 425 397 347 475 250 475 c 0
 153 475 75 397 75 300 c 0
50 300 m 0
 50 410 140 500 250 500 c 0
 360 500 450 410 450 300 c 0
 450 190 360 100 250 100 c 0
 140 100 50 190 50 300 c 0
160 299 m 4
 160 248 201 207 251 207 c 4
 302 207 343 248 343 299 c 4
 343 349 302 390 251 390 c 4
 201 390 160 349 160 299 c 4
147 299 m 4
 147 356 194 403 251 403 c 4
 309 403 355 356 355 299 c 4
 355 241 309 195 251 195 c 0
 194 195 147 241 147 299 c 4
EndSplineSet
Validated: 1
EndChar

StartChar: L
Encoding: 76 76 13
Width: 712
Flags: W
HStem: 100 25<397.349 526.334> 190 25<50 281> 475 25<397.517 526.334> 677 20G<255 280.396> 677 20G<255 280.396>
VStem: 255 25<394 696> 262 25<235.712 364.312 394 696> 637 25<235.859 364.141>
LayerCount: 2
Fore
SplineSet
280 697 m 1xf5
 286 394 l 1
 319 457 386 500 462 500 c 0
 573 500 662 410 662 300 c 0
 662 190 573 100 462 100 c 0
 393 100 331 136 295 190 c 1
 50 190 l 1
 50 215 l 1
 281 215 l 1
 269 240 263 269 262 299 c 5xf3
 255 696 l 5
 280 697 l 1xf5
462 475 m 0
 365 475 287 397 287 300 c 0
 287 203 365 125 462 125 c 0
 559 125 637 203 637 300 c 0
 637 397 559 475 462 475 c 0
EndSplineSet
Validated: 1
EndChar

StartChar: N
Encoding: 78 78 14
Width: 500
Flags: W
HStem: 100 25<185.688 245 270 311.146> 475 25<185.859 314.141>
VStem: 50 25<235.475 364.141> 139 25<-57 120> 245 25<-89 100> 425 25<235.376 364.141>
LayerCount: 2
Fore
SplineSet
250 500 m 0
 360 500 450 410 450 300 c 0
 450 196 371 111 270 101 c 1
 270 -89 l 1
 245 -89 l 1
 245 100 l 1
 216 101 188 108 164 120 c 1
 164 -57 l 1
 139 -57 l 1
 139 134 l 1
 85 170 50 231 50 300 c 0
 50 410 140 500 250 500 c 0
250 475 m 0
 153 475 75 397 75 300 c 0
 75 203 153 125 250 125 c 0
 347 125 425 203 425 300 c 0
 425 397 347 475 250 475 c 0
EndSplineSet
Validated: 1
EndChar

StartChar: P
Encoding: 80 80 15
Width: 655
Flags: W
HStem: 114 23<344.79 465.081> 487 25<341.433 470.994> 540 20G<-11 26.7547>
VStem: 206 24<283.467 321> 581 24<249.701 374.12>
LayerCount: 2
Fore
SplineSet
-11 542 m 1
 6 560 l 1
 171 401 l 0
 212 361 l 1
 218 388 231 414 249 437 c 0
 289 486 347 512 406 512 c 0
 450 512 493 498 530 469 c 0
 579 429 605 371 605 312 c 0
 605 268 591 225 562 188 c 0
 522 139 464 113 406 113 c 0
 398 113 390 113 382 114 c 0
 380 114 379 114 378 114 c 0
 377 114 376 115 375 115 c 0
 354 118 333 124 314 134 c 0
 302 140 291 148 281 156 c 0
 250 181 228 213 216 248 c 1
 186 268 l 0
 135 301 l 1
 -11 261 l 1
 -18 285 l 1
 108 320 l 1
 -8 397 l 1
 6 417 l 1
 140 329 l 1
 194 343 l 1
 -11 542 l 1
167 310 m 1
 208 283 l 1
 207 293 206 301 206 311 c 0
 206 314 206 318 206 321 c 1
 167 310 l 1
269 421 m 4
 243 389 230 351 230 312 c 4
 230 261 253 210 296 175 c 4
 328 150 367 137 405 137 c 4
 456 137 507 160 542 203 c 4
 568 235 581 274 581 312 c 4
 581 364 558 415 515 449 c 4
 483 475 444 487 406 487 c 4
 354 487 303 465 269 421 c 4
EndSplineSet
Validated: 1
EndChar

StartChar: Q
Encoding: 81 81 16
Width: 554
Flags: W
HStem: 100 25<239.936 368.141> 475 25<239.859 368.141>
VStem: 104 25<-79 204 298 363.969> 479 25<235.859 364.141>
LayerCount: 2
Fore
SplineSet
304 475 m 0
 207 475 129 397 129 300 c 0
 129 203 207 125 304 125 c 0
 401 125 479 203 479 300 c 0
 479 397 401 475 304 475 c 0
304 500 m 0
 414 500 504 410 504 300 c 0
 504 190 414 100 304 100 c 0
 229 100 163 142 129 204 c 1
 129 -79 l 1
 104 -79 l 1
 104 241 l 1
 44 119 l 1
 22 130 l 1
 104 298 l 1
 104 300 l 2
 104 410 194 500 304 500 c 0
EndSplineSet
Validated: 1
EndChar

StartChar: R
Encoding: 82 82 17
Width: 500
Flags: W
HStem: 100 25<185.859 314.141> 475 25<191.415 314.141> 701 20G<39 72.6 173.107 201>
VStem: 50 25<235.859 363.884> 425 25<235.859 364.141>
LayerCount: 2
Fore
SplineSet
61 721 m 1
 148 571 l 1
 177 720 l 1
 201 715 l 1
 167 538 l 1
 193 492 l 1
 211 497 230 500 250 500 c 0
 360 500 450 410 450 300 c 0
 450 190 360 100 250 100 c 0
 140 100 50 190 50 300 c 0
 50 363 79 419 125 456 c 1
 140 533 l 1
 39 708 l 1
 61 721 l 1
159 500 m 1
 155 476 l 1
 160 479 164 481 169 483 c 1
 159 500 l 1
250 475 m 0
 161 475 75 404 75 300 c 0
 75 203 153 125 250 125 c 0
 347 125 425 203 425 300 c 0
 425 397 347 475 250 475 c 0
EndSplineSet
Validated: 1
EndChar

StartChar: S
Encoding: 83 83 18
Width: 500
Flags: W
HStem: 100 25<185.859 314.141> 276 25<150.933 276.292> 475 25<185.775 314.141>
VStem: 50 25<236.031 315.33> 425 25<235.859 364.141>
LayerCount: 2
Fore
SplineSet
250 500 m 0
 360 500 450 410 450 300 c 0
 450 190 360 100 250 100 c 0
 140 100 50 190 50 300 c 0
 50 410 140 500 250 500 c 0
250 475 m 0
 169 475 101 420 81 346 c 1
 134 317 170 304 200 301 c 0
 203 301 207 301 210 301 c 0
 239 301 265 308 298 321 c 1
 307 298 l 1
 275 285 246 276 215 276 c 0
 209 276 204 276 198 277 c 0
 164 279 127 293 76 320 c 1
 76 314 75 307 75 300 c 0
 75 203 153 125 250 125 c 0
 347 125 425 203 425 300 c 0
 425 397 347 475 250 475 c 0
EndSplineSet
Validated: 1
EndChar

StartChar: T
Encoding: 84 84 19
Width: 726
Flags: W
HStem: 100 25<411.688 540.141> 475 25<411.836 506.8> 659 19G<410.2 437 548.807 578 675.069 706>
VStem: 276 25<254.926 326.655> 651 25<235.859 364.375>
LayerCount: 2
Fore
SplineSet
554 679 m 1
 578 672 l 1
 531 492 l 1
 563 483 591 466 614 444 c 1
 683 618 l 1
 706 609 l 1
 633 423 l 1
 660 389 676 347 676 300 c 0
 676 190 586 100 476 100 c 0
 396 100 327 147 295 214 c 1
 153 306 l 1
 8 282 l 1
 0 331 l 1
 91 347 l 1
 47 375 l 1
 61 396 l 1
 128 353 l 1
 293 380 l 1
 311 422 344 457 385 478 c 1
 413 678 l 1
 437 674 l 1
 411 489 l 1
 432 496 453 500 476 500 c 0
 486 500 497 499 507 498 c 2
 554 679 l 1
476 475 m 0
 379 475 301 397 301 300 c 0
 301 203 379 125 476 125 c 0
 573 125 651 203 651 300 c 0
 651 397 573 475 476 475 c 0
278 327 m 1
 189 313 l 1
 281 253 l 1
 278 268 276 284 276 300 c 0
 276 309 276 318 278 327 c 1
EndSplineSet
Validated: 1
EndChar

StartChar: U
Encoding: 85 85 20
Width: 500
Flags: W
HStem: 100 25<185.859 314.141> 475 25<206.657 251 276 311.613> 637 30G<181 206 251 276>
VStem: 50 25<235.859 364.755> 181 25<495 637> 251 25<500 687> 425 25<235.859 363.794>
LayerCount: 2
Fore
SplineSet
251 687 m 1
 276 687 l 1
 276 498 l 1
 374 485 450 401 450 300 c 0
 450 190 360 100 250 100 c 0
 140 100 50 190 50 300 c 0
 50 386 105 459 181 488 c 1
 181 637 l 1
 206 637 l 1
 206 495 l 1
 220 498 235 500 250 500 c 0
 251 500 251 500 251 500 c 1
 251 687 l 1
250 475 m 0
 153 475 75 397 75 300 c 0
 75 203 153 125 250 125 c 0
 347 125 425 203 425 300 c 0
 425 397 347 475 250 475 c 0
EndSplineSet
Validated: 1
EndChar

StartChar: V
Encoding: 86 86 21
Width: 500
Flags: W
HStem: 100 25<185.859 314.141> 475 25<217.723 314.141> 662 8G<88 120.544 246.446 276>
VStem: 50 25<235.859 363.016> 425 25<235.859 364.141>
LayerCount: 2
Fore
SplineSet
253 690 m 1
 276 682 l 1
 216 497 l 1
 227 499 238 500 250 500 c 0
 360 500 450 410 450 300 c 0
 450 190 360 100 250 100 c 0
 140 100 50 190 50 300 c 0
 50 386 105 460 181 488 c 1
 88 650 l 1
 109 662 l 1
 195 513 l 1
 253 690 l 1
250 475 m 0
 153 475 75 397 75 300 c 0
 75 203 153 125 250 125 c 0
 347 125 425 203 425 300 c 0
 425 397 347 475 250 475 c 0
EndSplineSet
Validated: 1
EndChar

StartChar: W
Encoding: 87 87 22
Width: 500
Flags: W
HStem: 100 25<185.859 314.141> 475 24<189.689 230 255 310.311> 663 6G<142 167 230 255 336 361>
VStem: 50 25<235.859 363.844> 142 25<482 663> 230 25<500 689> 336 25<481 657> 425 25<235.859 364.633>
LayerCount: 2
Fore
SplineSet
230 689 m 1
 255 689 l 1
 255 500 l 1
 284 499 311 492 336 481 c 1
 336 657 l 1
 361 657 l 1
 361 466 l 1
 415 431 450 369 450 300 c 0
 450 190 360 100 250 100 c 0
 140 100 50 190 50 300 c 0
 50 371 87 433 142 468 c 1
 142 663 l 1
 167 663 l 1
 167 482 l 1
 187 491 208 497 230 499 c 1
 230 689 l 1
250 475 m 0
 153 475 75 397 75 300 c 0
 75 203 153 125 250 125 c 0
 347 125 425 203 425 300 c 0
 425 397 347 475 250 475 c 0
EndSplineSet
Validated: 1
EndChar

StartChar: X
Encoding: 88 88 23
Width: 619
Flags: W
HStem: 100 25<185.859 312.38> 475 25<185.859 313.13> 527 20G<467 469.5 574 576.5> 592 21G<245 270> 697 25<270 425>
VStem: 50 25<235.859 364.141> 245 25<592 697> 425 25<238.53 362.365 397 697> 511 21<507 723.985>
LayerCount: 2
Fore
SplineSet
522 724 m 0
 528 724 532 719 532 713 c 2
 532 507 l 1
 569 544 l 2
 571 546 573 547 575 547 c 0
 578 547 580 546 582 544 c 0
 583 543 584 540 584 538 c 0
 584 535 583 533 582 532 c 2
 522 472 l 1
 462 532 l 2
 460 533 459 535 459 538 c 0
 459 540 460 543 462 544 c 0
 464 546 466 547 468 547 c 0
 471 547 473 546 475 544 c 2
 511 507 l 1
 511 713 l 2
 511 719 516 724 522 724 c 0
250 475 m 0
 153 475 75 397 75 300 c 0
 75 203 153 125 250 125 c 0
 344 125 420 198 425 291 c 1
 425 309 l 1
 420 401 344 475 250 475 c 0
245 722 m 1
 270 722 l 1
 425 722 l 1
 450 722 l 1
 450 697 l 1
 450 309 l 2
 450 306 450 303 450 300 c 0
 450 297 450 294 450 291 c 0
 445 185 357 100 250 100 c 0
 140 100 50 190 50 300 c 0
 50 410 140 500 250 500 c 0
 325 500 391 458 425 397 c 1
 425 697 l 1
 270 697 l 1
 270 592 l 1
 245 592 l 1
 245 697 l 1
 245 722 l 1
EndSplineSet
Validated: 1
EndChar

StartChar: Y
Encoding: 89 89 24
Width: 807
Flags: W
HStem: 100 25<271.859 400.141> 267.7 25.3003<668.327 711.627> 475 25<271.272 399.696> 483 100G<45 80.6579 605.568 691.195>
VStem: 136 25<235.859 364.601> 511 25<235.859 363.969> 623.76 24.99<303.613 417.911> 682 24<411.097 448.875>
LayerCount: 2
Fore
SplineSet
686 503 m 1xcf
 706 426 l 2
 708 419 704 413 697 411 c 0
 690 409 684 413 682 420 c 2
 674 453 l 1
 665 431 655 404 651 378 c 0
 650 369 649 360 649 352 c 0
 649 343 650 335 651 328 c 0
 654 314 659 303 668 297 c 0
 675 292 681 292 688 293 c 0
 695 294 703 298 710 304 c 0
 724 315 735 330 735 330 c 2
 737 333 741 336 745 336 c 0
 748 336 750 334 752 333 c 0
 755 331 757 327 757 323 c 0
 757 320 756 318 755 316 c 2
 755 316 743 299 725 285 c 0
 716 278 705 272 693 269 c 0
 690 268 686 268 682 268 c 0
 673 268 662 271 653 277 c 0
 638 288 630 305 626 323 c 0
 624 330 624 338 624 346 c 0
 624 358 625 370 627 382 c 0
 632 413 642 444 653 468 c 1
 614 458 l 2
 607 456 601 460 599 467 c 0
 597 474 601 480 608 482 c 2
 686 503 l 1xcf
618 661 m 1
 639 648 l 1
 496 419 l 1
 521 386 536 344 536 300 c 0
 536 190 446 100 336 100 c 0
 226 100 136 190 136 300 c 0
 136 340 148 378 169 410 c 1
 45 568 l 1
 65 583 l 1xdf
 184 431 l 1
 221 474 275 500 336 500 c 0xef
 392 500 444 477 480 439 c 1
 618 661 l 1
336 475 m 0xef
 239 475 161 397 161 300 c 0
 161 203 239 125 336 125 c 0
 433 125 511 203 511 300 c 0
 511 397 433 475 336 475 c 0xef
EndSplineSet
Validated: 1
EndChar

StartChar: Z
Encoding: 90 90 25
Width: 664
Flags: W
HStem: 100 25<193.065 321.334> 475 25<192.786 321.334> 501 21G<563.5 568> 501 21G<563.5 568> 537 37<500 570> 592 136G<50 75.3593 564.5 569.5> 654 35<441 518>
VStem: 50 25<394 728> 57 25<236.031 360.311 394 728> 432 25<235.859 364.141>
LayerCount: 2
Fore
SplineSet
441 689 m 1xea40
 579 689 l 1
 579 658 l 1
 500 574 l 1
 571 574 l 1
 556 588 l 2
 553 591 552 594 552 596 c 0
 552 604 561 612 568 612 c 0
 571 612 573 611 575 609 c 2
 629 555 l 1
 574 504 l 2
 572 502 569 501 567 501 c 0
 560 501 552 509 552 516 c 0
 552 518 553 521 555 523 c 2
 570 537 l 1
 438 537 l 1
 438 569 l 1
 518 654 l 1
 441 654 l 1
 441 689 l 1xea40
75 728 m 1xcd40
 81 394 l 1
 114 457 181 500 257 500 c 0
 368 500 457 410 457 300 c 0
 457 190 368 100 257 100 c 0
 147 100 57 190 57 300 c 2xccc0
 50 728 l 1
 75 728 l 1xcd40
257 475 m 0
 161 475 83 397 82 300 c 0
 82 203 161 125 257 125 c 0
 354 125 432 203 432 300 c 0
 432 397 354 475 257 475 c 0
EndSplineSet
Validated: 1
EndChar

StartChar: a
Encoding: 97 97 26
Width: 669
Flags: W
HStem: 100 25<355.065 483.334> 475 25<59.0312 147.45 355.619 483.334>
VStem: 219 25<235.859 361.711> 594 25<235.859 364.141>
LayerCount: 2
Fore
SplineSet
419 500 m 4
 530 500 619 410 619 300 c 4
 619 190 530 100 419 100 c 4
 309 100 219 190 219 300 c 4
 219 321 223 341 228 360 c 4
 226 405 199 446 157 466 c 4
 140 474 122 478 104 478 c 4
 70 478 36 464 12 438 c 5
 0 450 l 5
 27 479 65 495 104 495 c 4
 124 495 145 490 164 481 c 4
 203 463 230 429 241 389 c 5
 273 455 341 500 419 500 c 4
419 475 m 0
 323 475 244 397 244 300 c 0
 244 203 323 125 419 125 c 0
 516 125 594 203 594 300 c 0
 594 397 516 475 419 475 c 0
EndSplineSet
Validated: 1
EndChar

StartChar: b
Encoding: 98 98 27
Width: 500
Flags: W
HStem: 100 25<187.062 314.141> 475 25<206.657 273.491> 648 25G<118 143 203 228 275 300 354 379>
VStem: 50 25<236.031 289 313.548 361.806> 118 25<469 648> 203 25<499 692> 275 25<498 693> 354 25<471 655> 425 25<235.859 363.598>
LayerCount: 2
Fore
SplineSet
275 693 m 1
 300 693 l 1
 300 494 l 1
 319 489 337 481 354 471 c 1
 354 655 l 1
 379 655 l 1
 379 453 l 1
 422 416 450 361 450 300 c 0
 450 190 360 100 250 100 c 0
 140 100 50 190 50 300 c 0
 50 360 76 414 118 450 c 1
 118 648 l 1
 143 648 l 1
 143 469 l 1
 161 481 182 489 203 494 c 1
 203 692 l 1
 228 692 l 1
 228 499 l 1
 235 500 243 500 250 500 c 0
 258 500 267 499 275 498 c 1
 275 693 l 1
250 475 m 0
 158 475 83 404 76 314 c 1
 199 306 l 1
 197 281 l 1
 75 289 l 1
 81 197 157 125 250 125 c 0
 347 125 425 203 425 300 c 0
 425 397 347 475 250 475 c 0
EndSplineSet
Validated: 1
EndChar

StartChar: c
Encoding: 99 99 28
Width: 458
Flags: W
HStem: 100 25<143.746 272.812> 475 25<144.513 271.819>
VStem: 383 25<235.666 364.734>
LayerCount: 2
Fore
SplineSet
408 300 m 0
 408 189 319 100 209 100 c 0
 155 100 106 121 70 156 c 1
 87 174 l 1
 118 144 161 125 209 125 c 0
 305 125 383 203 383 300 c 0
 383 398 303 475 209 475 c 0
 152 475 102 448 70 407 c 1
 50 422 l 1
 87 469 144 500 209 500 c 0
 316 500 408 412 408 300 c 0
EndSplineSet
Validated: 1
EndChar

StartChar: d
Encoding: 100 100 29
Width: 500
Flags: MW
VStem: 50 25<235.859 364.141> 147 13<265.501 332.43> 343 12<267.764 330.175> 425 25<236.031 364.312 397 751>
LayerCount: 2
Fore
SplineSet
250 475 m 0
 153 475 75 397 75 300 c 0
 75 203 153 125 250 125 c 0
 347 125 425 203 425 300 c 0
 425 397 347 475 250 475 c 0
160 299 m 0
 160 248 200 207 251 207 c 0
 302 207 343 248 343 299 c 0
 343 350 302 390 251 390 c 0
 200 390 160 350 160 299 c 0
147 299 m 0
 147 356 194 403 251 403 c 0
 308 403 355 356 355 299 c 0
 355 242 308 195 251 195 c 0
 194 195 147 242 147 299 c 0
425 751 m 1
 450 751 l 1
 450 300 l 2
 450 190 360 100 250 100 c 0
 140 100 50 190 50 300 c 0
 50 410 140 500 250 500 c 4
 325 500 391 459 425 397 c 1
 425 751 l 1
EndSplineSet
Validated: 1
EndChar

StartChar: e
Encoding: 101 101 30
Width: 500
Flags: W
HStem: 100 25<75 425> 296 25<75 216> 475 25<75 425>
VStem: 50 25<125 296 321 475> 425 25<125 475>
LayerCount: 2
Fore
SplineSet
50 500 m 1
 450 500 l 1
 450 100 l 1
 50 100 l 1
 50 296 l 1
 50 321 l 1
 50 500 l 1
75 475 m 1
 75 321 l 1
 216 321 l 1
 216 296 l 1
 75 296 l 1
 75 125 l 1
 425 125 l 1
 425 475 l 1
 75 475 l 1
EndSplineSet
Validated: 1
EndChar

StartChar: f
Encoding: 102 102 31
Width: 726
Flags: W
HStem: 100 25<412.478 539.935> 475 25<411.836 506.67> 659 19G<410.2 437 548.807 578 675.069 706>
VStem: 276 25<271.869 339.511> 651 25<235.859 364.375>
LayerCount: 2
Fore
SplineSet
554 679 m 1
 578 672 l 1
 531 492 l 1
 563 483 591 466 614 444 c 1
 683 618 l 1
 706 609 l 1
 633 423 l 1
 660 389 676 347 676 300 c 0
 676 190 586 100 476 100 c 0
 406 100 344 136 308 191 c 1
 119 313 l 1
 4 294 l 1
 -0 319 l 1
 88 333 l 1
 41 365 l 1
 68 406 l 1
 161 346 l 1
 287 367 l 1
 304 415 339 455 385 478 c 1
 413 678 l 1
 437 674 l 1
 411 489 l 1
 432 496 453 500 476 500 c 0
 486 500 497 499 507 498 c 2
 554 679 l 1
476 475 m 0
 379 475 301 397 301 300 c 0
 301 203 379 125 476 125 c 0
 572 125 651 203 651 300 c 0
 651 397 572 475 476 475 c 0
280 340 m 1
 192 326 l 1
 278 270 l 1
 276 280 276 290 276 300 c 0
 276 314 277 327 280 340 c 1
EndSplineSet
Validated: 1
EndChar

StartChar: v
Encoding: 118 118 32
Width: 500
Flags: W
HStem: 100 25<185.859 314.141> 475 25<217.723 314.141> 662 8G<88 120.544 246.446 276>
VStem: 50 25<235.859 363.016> 425 25<235.859 364.141>
LayerCount: 2
Fore
SplineSet
253 690 m 1
 276 682 l 1
 216 497 l 1
 227 499 238 500 250 500 c 0
 360 500 450 410 450 300 c 0
 450 190 360 100 250 100 c 0
 140 100 50 190 50 300 c 0
 50 386 105 460 181 488 c 1
 88 650 l 1
 109 662 l 1
 195 513 l 1
 253 690 l 1
250 475 m 0
 153 475 75 397 75 300 c 0
 75 203 153 125 250 125 c 0
 347 125 425 203 425 300 c 0
 425 397 347 475 250 475 c 0
EndSplineSet
Validated: 1
EndChar

StartChar: g
Encoding: 103 103 33
Width: 529
Flags: W
HStem: 100 25<215.666 343.935> 475 25<215.687 343.935> 506 194G<11 44.9841 107.412 134>
VStem: 80 25<236.031 301> 455 25<235.859 364.141>
LayerCount: 2
Fore
SplineSet
109 720 m 5
 134 718 l 5
 109 405 l 5
 145 462 208 500 280 500 c 4
 390 500 480 410 480 300 c 4
 480 190 390 100 280 100 c 4
 169 100 80 190 80 300 c 4
 80 301 l 6
 11 496 l 5
 38 506 l 5
 82 380 l 5
 109 720 l 5
280 475 m 0
 183 475 105 397 105 300 c 0
 105 203 183 125 280 125 c 0
 376 125 455 203 455 300 c 0
 455 397 376 475 280 475 c 0
EndSplineSet
Validated: 1
EndChar

StartChar: h
Encoding: 104 104 34
Width: 510
Flags: W
HStem: 0 15<258.04 341.639> 60 15<206 246.952 394.5 396.444> 100 25<235.859 364.141> 475 25<235.374 364.141> 594 20G<0 42.2727 108 134.75>
VStem: 100 25<235.859 364.215> 475 25<235.859 364.141>
LayerCount: 2
Fore
SplineSet
220 769 m 1
 245 766 l 1
 217 482 l 1
 242 494 270 500 300 500 c 0
 410 500 500 410 500 300 c 0
 500 190 410 100 300 100 c 0
 190 100 100 190 100 300 c 0
 100 340 112 377 132 408 c 1
 123 504 l 1
 0 594 l 1
 15 614 l 1
 120 537 l 1
 108 676 l 1
 133 678 l 1
 147 518 l 1
 192 485 l 1
 220 769 l 1
150 485 m 5
 154 437 l 5
 163 446 172 454 182 462 c 5
 150 485 l 5
300 475 m 0
 203 475 125 397 125 300 c 0
 125 203 203 125 300 125 c 0
 397 125 475 203 475 300 c 0
 475 397 397 475 300 475 c 0
429 89 m 1
 444 20 l 0
 444 19 444 19 444 18 c 0
 444 14 441 11 438 11 c 0
 437 11 437 11 436 11 c 0
 433 11 430 13 429 17 c 2
 420 62 l 1
 389 23 346 0 300 0 c 0
 254 0 211 23 181 62 c 1
 171 16 l 1
 171 13 168 11 164 11 c 0
 163 11 l 0
 159 11 157 14 157 18 c 0
 157 19 157 19 157 20 c 2
 171 89 l 1
 241 75 l 1
 244 74 247 71 247 68 c 0
 247 67 247 67 247 66 c 0
 246 63 243 60 239 60 c 0
 238 60 l 2
 194 69 l 1
 222 35 260 15 300 15 c 0
 321 15 368 21 406 69 c 1
 363 60 l 0
 362 60 362 60 361 60 c 0
 358 60 354 63 354 66 c 0
 354 67 354 67 354 68 c 0
 354 71 356 74 360 75 c 2
 429 89 l 1
EndSplineSet
Validated: 1
EndChar

StartChar: i
Encoding: 105 105 35
Width: 500
Flags: W
HStem: 100 25<185.666 313.822> 475 25<185.666 312.003> 559 20G<417 442.522> 559 20G<417 442.522>
VStem: 50 25<235.859 364.141> 417 25<401 578> 425 25<239.788 300 300.187 363.258 401 545.5>
LayerCount: 2
Fore
SplineSet
250 475 m 0xca
 153 475 75 397 75 300 c 0
 75 203 153 125 250 125 c 0
 346 125 424 203 425 299 c 2
 424 310 l 2
 419 402 343 475 250 475 c 0xca
442 579 m 1xec
 449 311 l 2
 450 307 450 304 450 300 c 2
 450 299 l 2xea
 449 189 360 100 250 100 c 0
 139 100 50 190 50 300 c 0
 50 410 139 500 250 500 c 0
 323 500 387 460 422 401 c 1
 417 578 l 1
 442 579 l 1xec
EndSplineSet
Validated: 1
EndChar

StartChar: j
Encoding: 106 106 36
Width: 663
Flags: W
HStem: 11 25<524.327 567.303> 100 25<185.859 314.141> 475 25<185.859 313.748> 559 20G<417 442.522> 559 20G<417 442.522>
VStem: 50 25<235.859 364.141> 417 25<401 578> 425 25<235.138 300 300.187 310 401 545.5> 480 25<46.4355 162.312> 538 24<154.097 191.875>
LayerCount: 2
Fore
SplineSet
442 579 m 1xf6c0
 449 311 l 2
 449 307 450 304 450 300 c 0
 450 299 l 1xf5c0
 450 189 360 100 250 100 c 0
 140 100 50 190 50 300 c 0
 50 410 140 500 250 500 c 0
 323 500 387 460 422 401 c 1
 417 578 l 1
 442 579 l 1xf6c0
250 475 m 1
 153 475 75 397 75 300 c 0
 75 203 153 125 250 125 c 0
 347 125 425 202 425 299 c 2
 424 310 l 2
 419 402 344 475 250 475 c 1
542 246 m 1
 562 169 l 2
 564 162 560 156 553 154 c 0
 546 152 540 156 538 163 c 2
 530 196 l 1
 521 174 511 147 507 121 c 0
 506 112 505 103 505 94 c 0
 505 86 506 78 507 71 c 0
 510 57 515 46 524 40 c 0
 531 35 537 35 544 36 c 0
 551 37 559 41 566 47 c 0
 580 58 591 73 591 73 c 2
 593 76 597 79 601 79 c 0
 604 79 606 77 608 76 c 0
 611 74 613 70 613 66 c 0
 613 63 612 61 611 59 c 2
 611 59 599 42 581 28 c 0
 572 21 561 15 549 12 c 0
 546 11 542 11 538 11 c 0
 529 11 519 14 510 20 c 0
 495 31 486 48 482 66 c 0
 480 73 480 81 480 89 c 0
 480 101 481 113 483 125 c 0
 488 156 498 187 509 211 c 1
 470 201 l 2
 463 199 457 203 455 210 c 0
 453 217 457 223 464 225 c 2
 542 246 l 1
EndSplineSet
Validated: 1
EndChar

StartChar: k
Encoding: 107 107 37
Width: 590
Flags: W
HStem: 100 25<285.859 414.334> 475 25<285.643 414.334> 594 20G<50 92.2727 158 184.75>
VStem: 150 25<235.859 364.215> 503 34<559 680> 525 25<235.859 364.141>
LayerCount: 2
Fore
SplineSet
520 742 m 1xf8
 557 680 l 1
 537 680 l 1
 537 559 l 1
 557 559 l 1
 520 496 l 1
 484 559 l 1
 503 559 l 1
 503 680 l 1
 484 680 l 1
 520 742 l 1xf8
270 769 m 1
 295 766 l 1
 267 482 l 1
 293 494 321 500 350 500 c 0
 461 500 550 410 550 300 c 0xf4
 550 190 461 100 350 100 c 0
 240 100 150 190 150 300 c 0
 150 340 162 377 182 408 c 1
 173 504 l 1
 50 594 l 1
 65 614 l 1
 170 537 l 1
 158 676 l 1
 183 678 l 1
 197 518 l 1
 243 485 l 1
 270 769 l 1
200 485 m 1
 204 437 l 1
 213 446 222 454 232 462 c 1
 200 485 l 1
350 475 m 0
 253 475 175 397 175 300 c 0
 175 203 253 125 350 125 c 0
 447 125 525 203 525 300 c 0
 525 397 447 475 350 475 c 0
EndSplineSet
Validated: 1
EndChar

StartChar: l
Encoding: 108 108 38
Width: 712
Flags: W
HStem: 100 25<397.349 526.334> 190 25<50 281> 475 25<397.517 526.334> 677 20G<255 280.396> 677 20G<255 280.396>
VStem: 255 25<394 696> 262 25<235.712 364.312 394 696> 637 25<235.859 364.141>
LayerCount: 2
Fore
SplineSet
280 697 m 1xf5
 286 394 l 1
 319 457 386 500 462 500 c 0
 573 500 662 410 662 300 c 0
 662 190 573 100 462 100 c 0
 393 100 331 136 295 190 c 1
 50 190 l 1
 50 215 l 1
 281 215 l 1
 269 240 263 269 262 299 c 5xf3
 255 696 l 5
 280 697 l 1xf5
462 475 m 0
 365 475 287 397 287 300 c 0
 287 203 365 125 462 125 c 0
 559 125 637 203 637 300 c 0
 637 397 559 475 462 475 c 0
EndSplineSet
Validated: 1
EndChar

StartChar: m
Encoding: 109 109 39
Width: 500
Flags: W
HStem: 100 25<185.688 245 270 314.312> 475 25<185.859 314.141>
VStem: 50 25<235.475 364.141> 139 25<-57 120> 245 25<-89 100> 333 25<-63 118> 425 25<236.156 364.141>
LayerCount: 2
Fore
SplineSet
250 500 m 0
 360 500 450 410 450 300 c 0
 450 229 413 167 358 132 c 1
 358 -63 l 1
 333 -63 l 1
 333 118 l 1
 313 109 292 103 270 101 c 1
 270 -89 l 1
 245 -89 l 1
 245 100 l 1
 216 101 188 108 164 120 c 1
 164 -57 l 1
 139 -57 l 1
 139 134 l 1
 85 170 50 231 50 300 c 0
 50 410 140 500 250 500 c 0
250 475 m 0
 153 475 75 397 75 300 c 0
 75 203 153 125 250 125 c 0
 347 125 425 203 425 300 c 0
 425 397 347 475 250 475 c 0
EndSplineSet
Validated: 1
EndChar

StartChar: n
Encoding: 110 110 40
Width: 500
Flags: W
HStem: 100 25<185.688 245 270 311.146> 475 25<185.859 314.141>
VStem: 50 25<235.475 364.141> 139 25<-57 120> 245 25<-89 100> 425 25<235.376 364.141>
LayerCount: 2
Fore
SplineSet
250 500 m 0
 360 500 450 410 450 300 c 0
 450 196 371 111 270 101 c 1
 270 -89 l 1
 245 -89 l 1
 245 100 l 1
 216 101 188 108 164 120 c 1
 164 -57 l 1
 139 -57 l 1
 139 134 l 1
 85 170 50 231 50 300 c 0
 50 410 140 500 250 500 c 0
250 475 m 0
 153 475 75 397 75 300 c 0
 75 203 153 125 250 125 c 0
 347 125 425 203 425 300 c 0
 425 397 347 475 250 475 c 0
EndSplineSet
Validated: 1
EndChar

StartChar: o
Encoding: 111 111 41
Width: 500
Flags: W
HStem: 100 25<185.859 314.141> 195 12<220.025 282.422> 390 13<217.776 284.693> 475 25<185.859 314.141>
VStem: 50 25<235.859 364.141> 147 13<265.307 332.224> 343 12<267.578 329.975> 425 25<235.859 364.141>
LayerCount: 2
Fore
SplineSet
75 300 m 0
 75 203 153 125 250 125 c 0
 347 125 425 203 425 300 c 0
 425 397 347 475 250 475 c 0
 153 475 75 397 75 300 c 0
50 300 m 0
 50 410 140 500 250 500 c 0
 360 500 450 410 450 300 c 0
 450 190 360 100 250 100 c 0
 140 100 50 190 50 300 c 0
160 299 m 4
 160 248 201 207 251 207 c 4
 302 207 343 248 343 299 c 4
 343 349 302 390 251 390 c 4
 201 390 160 349 160 299 c 4
147 299 m 4
 147 356 194 403 251 403 c 4
 309 403 355 356 355 299 c 4
 355 241 309 195 251 195 c 0
 194 195 147 241 147 299 c 4
EndSplineSet
Validated: 1
EndChar

StartChar: p
Encoding: 112 112 42
Width: 655
Flags: W
HStem: 114 23<344.79 465.081> 487 25<341.433 470.994> 540 20G<-11 26.7547>
VStem: 206 24<283.467 321> 581 24<249.701 374.12>
LayerCount: 2
Fore
SplineSet
-11 542 m 1
 6 560 l 1
 171 401 l 0
 212 361 l 1
 218 388 231 414 249 437 c 0
 289 486 347 512 406 512 c 0
 450 512 493 498 530 469 c 0
 579 429 605 371 605 312 c 0
 605 268 591 225 562 188 c 0
 522 139 464 113 406 113 c 0
 398 113 390 113 382 114 c 0
 380 114 379 114 378 114 c 0
 377 114 376 115 375 115 c 0
 354 118 333 124 314 134 c 0
 302 140 291 148 281 156 c 0
 250 181 228 213 216 248 c 1
 186 268 l 0
 135 301 l 1
 -11 261 l 1
 -18 285 l 1
 108 320 l 1
 -8 397 l 1
 6 417 l 1
 140 329 l 1
 194 343 l 1
 -11 542 l 1
167 310 m 1
 208 283 l 1
 207 293 206 301 206 311 c 0
 206 314 206 318 206 321 c 1
 167 310 l 1
269 421 m 4
 243 389 230 351 230 312 c 4
 230 261 253 210 296 175 c 4
 328 150 367 137 405 137 c 4
 456 137 507 160 542 203 c 4
 568 235 581 274 581 312 c 4
 581 364 558 415 515 449 c 4
 483 475 444 487 406 487 c 4
 354 487 303 465 269 421 c 4
EndSplineSet
Validated: 1
EndChar

StartChar: q
Encoding: 113 113 43
Width: 554
Flags: W
HStem: 100 25<239.936 368.141> 475 25<239.859 368.141>
VStem: 104 25<-79 204 298 363.969> 479 25<235.859 364.141>
LayerCount: 2
Fore
SplineSet
304 475 m 0
 207 475 129 397 129 300 c 0
 129 203 207 125 304 125 c 0
 401 125 479 203 479 300 c 0
 479 397 401 475 304 475 c 0
304 500 m 0
 414 500 504 410 504 300 c 0
 504 190 414 100 304 100 c 0
 229 100 163 142 129 204 c 1
 129 -79 l 1
 104 -79 l 1
 104 241 l 1
 44 119 l 1
 22 130 l 1
 104 298 l 1
 104 300 l 2
 104 410 194 500 304 500 c 0
EndSplineSet
Validated: 1
EndChar

StartChar: r
Encoding: 114 114 44
Width: 500
Flags: W
HStem: 100 25<185.859 314.141> 475 25<191.415 314.141> 701 20G<39 72.6 173.107 201>
VStem: 50 25<235.859 363.884> 425 25<235.859 364.141>
LayerCount: 2
Fore
SplineSet
61 721 m 1
 148 571 l 1
 177 720 l 1
 201 715 l 1
 167 538 l 1
 193 492 l 1
 211 497 230 500 250 500 c 0
 360 500 450 410 450 300 c 0
 450 190 360 100 250 100 c 0
 140 100 50 190 50 300 c 0
 50 363 79 419 125 456 c 1
 140 533 l 1
 39 708 l 1
 61 721 l 1
159 500 m 1
 155 476 l 1
 160 479 164 481 169 483 c 1
 159 500 l 1
250 475 m 0
 161 475 75 404 75 300 c 0
 75 203 153 125 250 125 c 0
 347 125 425 203 425 300 c 0
 425 397 347 475 250 475 c 0
EndSplineSet
Validated: 1
EndChar

StartChar: s
Encoding: 115 115 45
Width: 500
Flags: W
HStem: 100 25<185.859 314.141> 276 25<150.933 276.292> 475 25<185.775 314.141>
VStem: 50 25<236.031 315.33> 425 25<235.859 364.141>
LayerCount: 2
Fore
SplineSet
250 500 m 0
 360 500 450 410 450 300 c 0
 450 190 360 100 250 100 c 0
 140 100 50 190 50 300 c 0
 50 410 140 500 250 500 c 0
250 475 m 0
 169 475 101 420 81 346 c 1
 134 317 170 304 200 301 c 0
 203 301 207 301 210 301 c 0
 239 301 265 308 298 321 c 1
 307 298 l 1
 275 285 246 276 215 276 c 0
 209 276 204 276 198 277 c 0
 164 279 127 293 76 320 c 1
 76 314 75 307 75 300 c 0
 75 203 153 125 250 125 c 0
 347 125 425 203 425 300 c 0
 425 397 347 475 250 475 c 0
EndSplineSet
Validated: 1
EndChar

StartChar: t
Encoding: 116 116 46
Width: 726
Flags: W
HStem: 100 25<411.688 540.141> 475 25<411.836 506.8> 659 19G<410.2 437 548.807 578 675.069 706>
VStem: 276 25<254.926 326.655> 651 25<235.859 364.375>
LayerCount: 2
Fore
SplineSet
554 679 m 1
 578 672 l 1
 531 492 l 1
 563 483 591 466 614 444 c 1
 683 618 l 1
 706 609 l 1
 633 423 l 1
 660 389 676 347 676 300 c 0
 676 190 586 100 476 100 c 0
 396 100 327 147 295 214 c 1
 153 306 l 1
 8 282 l 1
 0 331 l 1
 91 347 l 1
 47 375 l 1
 61 396 l 1
 128 353 l 1
 293 380 l 1
 311 422 344 457 385 478 c 1
 413 678 l 1
 437 674 l 1
 411 489 l 1
 432 496 453 500 476 500 c 0
 486 500 497 499 507 498 c 2
 554 679 l 1
476 475 m 0
 379 475 301 397 301 300 c 0
 301 203 379 125 476 125 c 0
 573 125 651 203 651 300 c 0
 651 397 573 475 476 475 c 0
278 327 m 1
 189 313 l 1
 281 253 l 1
 278 268 276 284 276 300 c 0
 276 309 276 318 278 327 c 1
EndSplineSet
Validated: 1
EndChar

StartChar: u
Encoding: 117 117 47
Width: 500
Flags: W
HStem: 100 25<185.859 314.141> 475 25<206.657 251 276 311.613> 637 30G<181 206 251 276>
VStem: 50 25<235.859 364.755> 181 25<495 637> 251 25<500 687> 425 25<235.859 363.794>
LayerCount: 2
Fore
SplineSet
251 687 m 1
 276 687 l 1
 276 498 l 1
 374 485 450 401 450 300 c 0
 450 190 360 100 250 100 c 0
 140 100 50 190 50 300 c 0
 50 386 105 459 181 488 c 1
 181 637 l 1
 206 637 l 1
 206 495 l 1
 220 498 235 500 250 500 c 0
 251 500 251 500 251 500 c 1
 251 687 l 1
250 475 m 0
 153 475 75 397 75 300 c 0
 75 203 153 125 250 125 c 0
 347 125 425 203 425 300 c 0
 425 397 347 475 250 475 c 0
EndSplineSet
Validated: 1
EndChar

StartChar: w
Encoding: 119 119 48
Width: 500
Flags: W
HStem: 100 25<185.859 314.141> 475 24<189.689 230 255 310.311> 663 6G<142 167 230 255 336 361>
VStem: 50 25<235.859 363.844> 142 25<482 663> 230 25<500 689> 336 25<481 657> 425 25<235.859 364.633>
LayerCount: 2
Fore
SplineSet
230 689 m 1
 255 689 l 1
 255 500 l 1
 284 499 311 492 336 481 c 1
 336 657 l 1
 361 657 l 1
 361 466 l 1
 415 431 450 369 450 300 c 0
 450 190 360 100 250 100 c 0
 140 100 50 190 50 300 c 0
 50 371 87 433 142 468 c 1
 142 663 l 1
 167 663 l 1
 167 482 l 1
 187 491 208 497 230 499 c 1
 230 689 l 1
250 475 m 0
 153 475 75 397 75 300 c 0
 75 203 153 125 250 125 c 0
 347 125 425 203 425 300 c 0
 425 397 347 475 250 475 c 0
EndSplineSet
Validated: 1
EndChar

StartChar: x
Encoding: 120 120 49
Width: 619
Flags: W
HStem: 100 25<185.859 312.38> 475 25<185.859 313.13> 527 20G<467 469.5 574 576.5> 592 21G<245 270> 697 25<270 425>
VStem: 50 25<235.859 364.141> 245 25<592 697> 425 25<238.53 362.365 397 697> 511 21<507 723.985>
LayerCount: 2
Fore
SplineSet
522 724 m 0
 528 724 532 719 532 713 c 2
 532 507 l 1
 569 544 l 2
 571 546 573 547 575 547 c 0
 578 547 580 546 582 544 c 0
 583 543 584 540 584 538 c 0
 584 535 583 533 582 532 c 2
 522 472 l 1
 462 532 l 2
 460 533 459 535 459 538 c 0
 459 540 460 543 462 544 c 0
 464 546 466 547 468 547 c 0
 471 547 473 546 475 544 c 2
 511 507 l 1
 511 713 l 2
 511 719 516 724 522 724 c 0
250 475 m 0
 153 475 75 397 75 300 c 0
 75 203 153 125 250 125 c 0
 344 125 420 198 425 291 c 1
 425 309 l 1
 420 401 344 475 250 475 c 0
245 722 m 1
 270 722 l 1
 425 722 l 1
 450 722 l 1
 450 697 l 1
 450 309 l 2
 450 306 450 303 450 300 c 0
 450 297 450 294 450 291 c 0
 445 185 357 100 250 100 c 0
 140 100 50 190 50 300 c 0
 50 410 140 500 250 500 c 0
 325 500 391 458 425 397 c 1
 425 697 l 1
 270 697 l 1
 270 592 l 1
 245 592 l 1
 245 697 l 1
 245 722 l 1
EndSplineSet
Validated: 1
EndChar

StartChar: y
Encoding: 121 121 50
Width: 807
Flags: W
HStem: 100 25<271.859 400.141> 268 25<668.327 711.303> 475 25<271.272 399.696> 483 100G<45 80.6579 605.568 691.195>
VStem: 136 25<235.859 364.601> 511 25<235.859 363.969> 624 25<303.436 419.312> 682 24<411.097 448.875>
LayerCount: 2
Fore
SplineSet
686 503 m 1xcf
 706 426 l 2
 708 419 704 413 697 411 c 0
 690 409 684 413 682 420 c 2
 674 453 l 1
 665 431 655 404 651 378 c 0
 650 369 649 360 649 352 c 0
 649 343 650 335 651 328 c 0
 654 314 659 303 668 297 c 0
 675 292 681 292 688 293 c 0
 695 294 703 298 710 304 c 0
 724 315 735 330 735 330 c 2
 737 333 741 336 745 336 c 0
 748 336 750 334 752 333 c 0
 755 331 757 327 757 323 c 0
 757 320 756 318 755 316 c 2
 755 316 743 299 725 285 c 0
 716 278 705 272 693 269 c 0
 690 268 686 268 682 268 c 0
 673 268 662 271 653 277 c 0
 638 288 630 305 626 323 c 0
 624 330 624 338 624 346 c 0
 624 358 625 370 627 382 c 0
 632 413 642 444 653 468 c 1
 614 458 l 2
 607 456 601 460 599 467 c 0
 597 474 601 480 608 482 c 2
 686 503 l 1xcf
618 661 m 1
 639 648 l 1
 496 419 l 1
 521 386 536 344 536 300 c 0
 536 190 446 100 336 100 c 0
 226 100 136 190 136 300 c 0
 136 340 148 378 169 410 c 1
 45 568 l 1
 65 583 l 1xdf
 184 431 l 1
 221 474 275 500 336 500 c 0xef
 392 500 444 477 480 439 c 1
 618 661 l 1
336 475 m 0xef
 239 475 161 397 161 300 c 0
 161 203 239 125 336 125 c 0
 433 125 511 203 511 300 c 0
 511 397 433 475 336 475 c 0xef
EndSplineSet
Validated: 1
EndChar

StartChar: z
Encoding: 122 122 51
Width: 664
Flags: W
HStem: 100 25<193.065 321.334> 475 25<192.786 321.334> 501 21G<563.5 568> 501 21G<563.5 568> 537 37<500 570> 592 136G<50 75.3593 564.5 569.5> 654 35<441 518>
VStem: 50 25<394 728> 57 25<236.031 360.311 394 728> 432 25<235.859 364.141>
LayerCount: 2
Fore
SplineSet
441 689 m 1xea40
 579 689 l 1
 579 658 l 1
 500 574 l 1
 571 574 l 1
 556 588 l 2
 553 591 552 594 552 596 c 0
 552 604 561 612 568 612 c 0
 571 612 573 611 575 609 c 2
 629 555 l 1
 574 504 l 2
 572 502 569 501 567 501 c 0
 560 501 552 509 552 516 c 0
 552 518 553 521 555 523 c 2
 570 537 l 1
 438 537 l 1
 438 569 l 1
 518 654 l 1
 441 654 l 1
 441 689 l 1xea40
75 728 m 1xcd40
 81 394 l 1
 114 457 181 500 257 500 c 0
 368 500 457 410 457 300 c 0
 457 190 368 100 257 100 c 0
 147 100 57 190 57 300 c 2xccc0
 50 728 l 1
 75 728 l 1xcd40
257 475 m 0
 161 475 83 397 82 300 c 0
 82 203 161 125 257 125 c 0
 354 125 432 203 432 300 c 0
 432 397 354 475 257 475 c 0
EndSplineSet
Validated: 1
EndChar

StartChar: zero
Encoding: 48 48 53
Width: 500
Flags: W
HStem: 100 25<185.859 314.141> 195 12<220.025 282.422> 390 13<217.776 284.693> 475 25<185.859 314.141>
VStem: 50 25<235.859 364.141> 147 13<265.307 332.224> 343 12<267.578 329.975> 425 25<235.859 364.141>
LayerCount: 2
Fore
SplineSet
75 300 m 0
 75 203 153 125 250 125 c 0
 347 125 425 203 425 300 c 0
 425 397 347 475 250 475 c 0
 153 475 75 397 75 300 c 0
50 300 m 0
 50 410 140 500 250 500 c 0
 360 500 450 410 450 300 c 0
 450 190 360 100 250 100 c 0
 140 100 50 190 50 300 c 0
160 299 m 4
 160 248 201 207 251 207 c 4
 302 207 343 248 343 299 c 4
 343 349 302 390 251 390 c 4
 201 390 160 349 160 299 c 4
147 299 m 4
 147 356 194 403 251 403 c 4
 309 403 355 356 355 299 c 4
 355 241 309 195 251 195 c 0
 194 195 147 241 147 299 c 4
EndSplineSet
Validated: 1
EndChar

StartChar: one
Encoding: 49 49 54
Width: 500
Flags: W
HStem: 100 25<185.859 314.141> 475 25<185.859 313.95> 671 20G<379 404>
VStem: 50 25<235.859 364.141> 379 25<453 691> 425 25<235.859 364.755>
LayerCount: 2
Fore
SplineSet
379 691 m 1
 404 691 l 1
 404 428 l 1
 433 393 450 349 450 300 c 0
 450 190 360 100 250 100 c 0
 140 100 50 190 50 300 c 0
 50 410 140 500 250 500 c 0
 299 500 344 482 379 453 c 1
 379 691 l 1
250 475 m 0
 153 475 75 397 75 300 c 0
 75 203 153 125 250 125 c 0
 347 125 425 203 425 300 c 0
 425 397 347 475 250 475 c 0
EndSplineSet
Validated: 1
EndChar

StartChar: two
Encoding: 50 50 55
Width: 500
Flags: W
HStem: 100 25<185.859 314.141> 475 24<189.689 228 253 310.311> 704 20G<228 253 337 362>
VStem: 50 25<235.859 364.368> 228 25<500 724> 337 25<480 689> 425 25<235.859 364.399>
LayerCount: 2
Fore
SplineSet
228 724 m 1
 253 724 l 1
 253 500 l 1
 283 499 312 492 337 480 c 1
 337 689 l 1
 362 689 l 1
 362 465 l 1
 415 429 450 369 450 300 c 0
 450 190 360 100 250 100 c 0
 140 100 50 190 50 300 c 0
 50 403 128 488 228 499 c 1
 228 724 l 1
250 475 m 0
 153 475 75 397 75 300 c 0
 75 203 153 125 250 125 c 0
 347 125 425 203 425 300 c 0
 425 397 347 475 250 475 c 0
EndSplineSet
Validated: 1
EndChar

StartChar: three
Encoding: 51 51 56
Width: 500
Flags: W
HStem: 100 25<185.859 314.141> 475 25<253 314.312> 656 48G<141 166 228 253 337 362>
VStem: 50 25<235.859 363.522> 141 25<481 656> 228 25<500 724> 337 25<480 689> 425 25<235.859 364.399>
LayerCount: 2
Fore
SplineSet
228 724 m 1
 253 724 l 1
 253 500 l 1
 283 499 312 492 337 480 c 1
 337 689 l 1
 362 689 l 1
 362 465 l 1
 415 429 450 369 450 300 c 0
 450 190 360 100 250 100 c 0
 140 100 50 190 50 300 c 0
 50 370 86 432 141 468 c 1
 141 656 l 1
 166 656 l 1
 166 481 l 1
 185 490 206 496 228 499 c 1
 228 724 l 1
250 475 m 0
 153 475 75 397 75 300 c 0
 75 203 153 125 250 125 c 0
 347 125 425 203 425 300 c 0
 425 397 347 475 250 475 c 0
EndSplineSet
Validated: 1
EndChar

StartChar: four
Encoding: 52 52 57
Width: 500
Flags: W
HStem: 100 25<185.859 314.141> 475 25<231.188 293.814> 661 20G<123 148 205 230 274 299 352 377>
VStem: 50 25<235.859 364.091> 123 25<472 638> 205 25<499 681> 274 25<498 681> 352 25<472 644> 425 25<236.031 308>
LayerCount: 2
Fore
SplineSet
205 681 m 1
 230 681 l 1
 230 499 l 1
 237 500 243 500 250 500 c 0
 258 500 266 499 274 498 c 1
 274 681 l 1
 299 681 l 1
 299 494 l 1
 318 489 336 482 352 472 c 1
 352 644 l 1
 377 644 l 1
 377 454 l 1
 422 417 450 362 450 300 c 0
 450 190 360 100 250 100 c 0
 140 100 50 190 50 300 c 0
 50 362 78 418 123 454 c 1
 123 638 l 1
 148 638 l 1
 148 472 l 1
 165 482 185 490 205 495 c 1
 205 681 l 1
250 475 m 0
 153 475 75 397 75 300 c 0
 75 203 153 125 250 125 c 0
 347 125 425 203 425 300 c 0
 425 303 425 306 425 308 c 1
 286 299 l 1
 285 324 l 1
 422 333 l 1
 406 414 335 475 250 475 c 0
EndSplineSet
Validated: 1
EndChar

StartChar: five
Encoding: 53 53 58
Width: 500
Flags: W
HStem: 100 25<185.859 314.141> 475 25<227.508 314.141> 525 21G<50 75 96 121> 584 25<75 151> 679 25<121 202>
VStem: 50 25<235.859 363.645 525 584> 96 25<620 679> 151 25<486 584> 202 25<499 679> 425 25<235.859 364.141>
LayerCount: 2
Fore
SplineSet
96 704 m 1
 121 704 l 1
 202 704 l 1
 227 704 l 1
 227 499 l 1
 235 500 242 500 250 500 c 0
 360 500 450 410 450 300 c 0
 450 190 360 100 250 100 c 0
 140 100 50 190 50 300 c 0
 50 374 91 439 151 474 c 1
 151 584 l 1
 75 584 l 1
 75 525 l 1
 50 525 l 1
 50 609 l 1
 75 609 l 1
 151 609 l 1
 176 609 l 1
 176 486 l 1
 185 489 193 492 202 494 c 2
 202 679 l 1
 121 679 l 1
 121 620 l 1
 96 620 l 1
 96 704 l 1
250 475 m 0
 153 475 75 397 75 300 c 0
 75 203 153 125 250 125 c 0
 347 125 425 203 425 300 c 0
 425 397 347 475 250 475 c 0
EndSplineSet
Validated: 1
EndChar

StartChar: six
Encoding: 54 54 59
Width: 511
Flags: W
HStem: 100 25<185.859 314.091> 475 25<185.859 313.987>
VStem: 50 25<235.859 364.141> 425 25<235.688 364.312> 436 25<327.077 515.257>
LayerCount: 2
Fore
SplineSet
283 800 m 1xe8
 315 800 l 1
 362 741 461 595 461 408 c 0xe8
 461 373 458 336 450 299 c 1xf0
 449 189 360 100 250 100 c 0
 140 100 50 190 50 300 c 0
 50 410 140 500 250 500 c 0
 334 500 405 448 435 375 c 1
 436 386 436 397 436 407 c 0
 436 607 318 759 283 800 c 1xe8
250 475 m 0
 153 475 75 397 75 300 c 0
 75 203 153 125 250 125 c 0
 347 125 425 203 425 300 c 0xf0
 425 397 347 475 250 475 c 0
EndSplineSet
Validated: 1
EndChar

StartChar: seven
Encoding: 55 55 60
Width: 618
Flags: W
HStem: 100 25<303.827 431.935> 211 50<50.1976 75> 475 25<303.666 431.935>
VStem: 171 25<-74 198 287.243 368.584> 543 25<235.859 364.141>
LayerCount: 2
Fore
SplineSet
368 500 m 0
 478 500 568 410 568 300 c 0
 568 190 478 100 368 100 c 0
 295 100 231 139 196 198 c 1
 196 -74 l 1
 171 -74 l 1
 171 227 l 1
 115 211 75 211 75 211 c 2
 61 211 50 223 50 236 c 0
 50 250 61 261 75 261 c 2
 75 261 115 261 169 278 c 0
 168 285 168 293 168 300 c 0
 168 410 257 500 368 500 c 0
368 475 m 0
 271 475 193 397 193 300 c 0
 193 296 193 291 193 287 c 1
 224 298 258 316 291 341 c 0
 295 345 301 346 306 346 c 0
 307 346 308 346 310 346 c 0
 316 345 322 342 326 337 c 0
 329 332 331 327 331 321 c 0
 331 313 328 306 322 302 c 0
 282 271 241 251 204 238 c 1
 229 172 293 125 368 125 c 0
 464 125 543 203 543 300 c 0
 543 397 464 475 368 475 c 0
EndSplineSet
Validated: 1
EndChar

StartChar: eight
Encoding: 56 56 61
Width: 500
Flags: W
HStem: 0 15<214.556 297.238> 60 15<162 202.952 310.048 351> 100 25<185.859 314.141> 276 25<150.933 275.525> 475 25<185.775 314.141>
VStem: 50 25<236.031 315.33> 113 15<11.0196 51.7778> 385 15<11.0196 52> 425 25<235.859 364.141>
LayerCount: 2
Fore
SplineSet
250 500 m 0
 360 500 450 410 450 300 c 0
 450 190 360 100 250 100 c 0
 140 100 50 190 50 300 c 0
 50 410 140 500 250 500 c 0
250 475 m 0
 169 475 101 420 81 346 c 1
 134 317 170 304 200 301 c 0
 204 301 209 301 213 301 c 0
 240 301 265 309 298 321 c 1
 307 298 l 1
 274 285 245 276 212 276 c 0
 208 276 203 276 198 277 c 0
 164 279 127 293 76 320 c 1
 76 314 75 307 75 300 c 0
 75 203 153 125 250 125 c 0
 347 125 425 203 425 300 c 0
 425 397 347 475 250 475 c 0
386 89 m 1
 400 20 l 0
 400 19 400 19 400 18 c 0
 400 14 398 11 394 11 c 0
 393 11 l 0
 389 11 386 13 385 17 c 2
 376 62 l 1
 346 23 303 0 257 0 c 0
 211 0 167 23 137 62 c 1
 128 16 l 1
 127 13 124 11 120 11 c 0
 119 11 l 0
 116 11 113 14 113 18 c 0
 113 19 113 19 113 20 c 2
 127 89 l 1
 197 75 l 1
 201 74 203 71 203 68 c 0
 203 67 203 67 203 66 c 0
 202 63 199 60 196 60 c 0
 195 60 195 60 194 60 c 2
 150 69 l 1
 178 35 216 15 257 15 c 0
 277 15 324 21 363 69 c 1
 319 60 l 0
 318 60 l 0
 314 60 311 63 310 66 c 0
 310 67 310 67 310 68 c 0
 310 71 313 74 316 75 c 2
 386 89 l 1
EndSplineSet
Validated: 1
EndChar

StartChar: nine
Encoding: 57 57 62
Width: 511
Flags: W
HStem: 100 25<185.859 313.987> 475 25<185.859 314.091>
VStem: 50 25<235.859 364.141> 425 25<235.688 364.312> 436 25<84.7426 272.923>
LayerCount: 2
Fore
SplineSet
283 -200 m 1xe8
 318 -159 436 -7 436 193 c 0xe8
 436 203 436 214 435 225 c 1
 405 152 334 100 250 100 c 0
 140 100 50 190 50 300 c 0
 50 410 140 500 250 500 c 0
 360 500 449 411 450 301 c 1xf0
 458 264 461 227 461 192 c 0
 461 5 362 -141 315 -200 c 1
 283 -200 l 1xe8
250 125 m 0
 347 125 425 203 425 300 c 0xf0
 425 397 347 475 250 475 c 0
 153 475 75 397 75 300 c 0
 75 203 153 125 250 125 c 0
EndSplineSet
Validated: 1
EndChar

StartChar: uE1400
Encoding: 922624 922624 63
Width: 500
Flags: W
HStem: 100 25<185.859 314.141> 195 12<220.025 282.422> 390 13<217.776 284.693> 475 25<185.859 314.141>
VStem: 50 25<235.859 364.141> 147 13<265.307 332.224> 343 12<267.578 329.975> 425 25<235.859 364.141>
LayerCount: 2
Fore
SplineSet
75 300 m 0
 75 203 153 125 250 125 c 0
 347 125 425 203 425 300 c 0
 425 397 347 475 250 475 c 0
 153 475 75 397 75 300 c 0
50 300 m 0
 50 410 140 500 250 500 c 0
 360 500 450 410 450 300 c 0
 450 190 360 100 250 100 c 0
 140 100 50 190 50 300 c 0
160 299 m 4
 160 248 201 207 251 207 c 4
 302 207 343 248 343 299 c 4
 343 349 302 390 251 390 c 4
 201 390 160 349 160 299 c 4
147 299 m 4
 147 356 194 403 251 403 c 4
 309 403 355 356 355 299 c 4
 355 241 309 195 251 195 c 0
 194 195 147 241 147 299 c 4
EndSplineSet
Validated: 1
EndChar

StartChar: uE1401
Encoding: 922625 922625 64
Width: 500
Flags: W
HStem: 100 25<185.859 314.141> 475 25<185.859 313.95> 671 20G<379 404>
VStem: 50 25<235.859 364.141> 379 25<453 691> 425 25<235.859 364.755>
LayerCount: 2
Fore
SplineSet
379 691 m 1
 404 691 l 1
 404 428 l 1
 433 393 450 349 450 300 c 0
 450 190 360 100 250 100 c 0
 140 100 50 190 50 300 c 0
 50 410 140 500 250 500 c 0
 299 500 344 482 379 453 c 1
 379 691 l 1
250 475 m 0
 153 475 75 397 75 300 c 0
 75 203 153 125 250 125 c 0
 347 125 425 203 425 300 c 0
 425 397 347 475 250 475 c 0
EndSplineSet
Validated: 1
EndChar

StartChar: period
Encoding: 46 46 65
Width: 125
Flags: W
HStem: 62 76<28.7227 96.255>
VStem: 25 75<65.745 134.255>
LayerCount: 2
Fore
SplineSet
25 100 m 0
 25 121 42 138 62 138 c 0
 83 138 100 121 100 100 c 0
 100 79 83 62 62 62 c 0
 42 62 25 79 25 100 c 0
EndSplineSet
Validated: 1
EndChar

StartChar: comma
Encoding: 44 44 66
Width: 125
Flags: W
HStem: 63 75<28.7227 66>
VStem: 25 75<67.4688 134.255>
LayerCount: 2
Fore
SplineSet
25 -6 m 0
 25 4 43 14 66 63 c 1
 62 63 l 2
 42 63 25 79 25 100 c 0
 25 121 42 138 62 138 c 0
 83 138 100 121 100 100 c 2
 100 93 l 2
 100 58 73 16 49 -15 c 0
 47 -18 43 -20 39 -20 c 0
 27 -20 25 -10 25 -6 c 0
EndSplineSet
Validated: 1
EndChar

StartChar: question
Encoding: 63 63 67
Width: 363
Flags: W
HStem: 62 76<133.745 201.448> 612 25<116.972 221.76>
VStem: 25 25<470 538.281> 130 75<65.745 134.255> 155 25<217 292.87> 288 25<426.09 541.314>
LayerCount: 2
Fore
SplineSet
130 100 m 0xf4
 130 121 147 138 168 138 c 0
 189 138 205 121 205 100 c 0
 205 79 189 62 168 62 c 0
 147 62 130 79 130 100 c 0xf4
25 482 m 2
 25 558 78 637 168 637 c 0
 264 637 313 557 313 482 c 0
 313 375 230 362 196 301 c 0
 180 272 180 244 180 217 c 1
 155 217 l 1
 155 230 l 2xec
 155 265 163 291 174 313 c 0
 213 383 288 386 288 482 c 0
 288 548 247 612 168 612 c 0
 95 612 50 548 50 482 c 2
 50 470 l 1
 25 470 l 1
 25 482 l 2
EndSplineSet
Validated: 1
EndChar

StartChar: exclam
Encoding: 33 33 68
Width: 125
Flags: W
HStem: 62 76<28.7227 96.255> 630 20G<38 88>
VStem: 25 75<65.745 134.255> 38 50<414.154 650> 50 25<212 447.846>
LayerCount: 2
Fore
SplineSet
25 100 m 0xe0
 25 121 42 138 62 138 c 0
 83 138 100 121 100 100 c 0
 100 79 83 62 62 62 c 0
 42 62 25 79 25 100 c 0xe0
38 650 m 1xd0
 88 650 l 1xd0
 75 212 l 1
 50 212 l 1xc8
 38 650 l 1xd0
EndSplineSet
Validated: 1
EndChar

StartChar: hyphen
Encoding: 45 45 69
Width: 300
Flags: W
HStem: 288 25<50 250>
VStem: 50 200<288 313>
LayerCount: 2
Fore
SplineSet
50 313 m 1
 250 313 l 1
 250 288 l 1
 50 288 l 1
 50 313 l 1
EndSplineSet
Validated: 1
EndChar

StartChar: plus
Encoding: 43 43 70
Width: 500
Flags: W
HStem: 100 21G<237 262> 288 25<50 237 262 450> 480 20G<237 262> 480 20G<237 262>
VStem: 237 25<100 288 313 500>
LayerCount: 2
Fore
SplineSet
262 500 m 1xe8
 262 313 l 1
 450 313 l 1
 450 288 l 1
 262 288 l 1
 262 100 l 1
 237 100 l 1
 237 288 l 1
 50 288 l 1
 50 313 l 1
 237 313 l 1
 237 500 l 1
 262 500 l 1xe8
EndSplineSet
Validated: 1
EndChar

StartChar: equal
Encoding: 61 61 71
Width: 400
Flags: W
HStem: 225 25<50 350> 350 25<50 350>
VStem: 50 300<225 250 350 375>
LayerCount: 2
Fore
SplineSet
50 375 m 1
 350 375 l 1
 350 350 l 1
 50 350 l 1
 50 375 l 1
50 250 m 1
 350 250 l 1
 350 225 l 1
 50 225 l 1
 50 250 l 1
EndSplineSet
Validated: 1
EndChar

StartChar: bar
Encoding: 124 124 72
Width: 75
Flags: W
HStem: 0 21G<25 50> 630 20G<25 50>
VStem: 25 25<0 650>
LayerCount: 2
Fore
SplineSet
50 650 m 1
 50 0 l 1
 25 0 l 1
 25 650 l 1
 50 650 l 1
EndSplineSet
Validated: 1
EndChar

StartChar: slash
Encoding: 47 47 73
Width: 224
Flags: W
HStem: 0 21G<0 32.0923> 630 20G<191.908 224>
VStem: -0 224
LayerCount: 2
Fore
SplineSet
198 650 m 1
 224 650 l 1
 26 0 l 1
 -0 0 l 1
 198 650 l 1
EndSplineSet
Validated: 1
EndChar

StartChar: less
Encoding: 60 60 74
Width: 500
Flags: W
LayerCount: 2
Fore
SplineSet
450 498 m 1
 450 471 l 1
 80 300 l 1
 450 129 l 1
 450 102 l 1
 50 286 l 1
 50 314 l 1
 450 498 l 1
EndSplineSet
Validated: 1
EndChar

StartChar: greater
Encoding: 62 62 75
Width: 500
Flags: W
LayerCount: 2
Fore
SplineSet
50 498 m 1
 450 314 l 1
 450 286 l 1
 50 102 l 1
 50 129 l 1
 420 300 l 1
 50 471 l 1
 50 498 l 1
EndSplineSet
Validated: 1
EndChar

StartChar: colon
Encoding: 58 58 76
Width: 125
Flags: W
HStem: 62 76<28.7227 96.255> 462 76<28.7227 96.255>
VStem: 25 75<65.745 134.255 465.745 534.255>
LayerCount: 2
Fore
SplineSet
25 100 m 0
 25 121 42 138 62 138 c 0
 83 138 100 121 100 100 c 0
 100 79 83 62 62 62 c 0
 42 62 25 79 25 100 c 0
25 500 m 0
 25 521 42 538 62 538 c 0
 83 538 100 521 100 500 c 0
 100 479 83 462 62 462 c 0
 42 462 25 479 25 500 c 0
EndSplineSet
Validated: 1
EndChar

StartChar: semicolon
Encoding: 59 59 77
Width: 125
Flags: W
HStem: 63 74<28.336 66> 462 76<28.7227 96.255>
VStem: 25 75<67.1347 133.448 465.745 534.255>
LayerCount: 2
Fore
SplineSet
25 500 m 0
 25 521 42 538 62 538 c 0
 83 538 100 521 100 500 c 0
 100 479 83 462 62 462 c 0
 42 462 25 479 25 500 c 0
62 137 m 1
 83 137 100 121 100 100 c 0
 100 99 100 98 100 98 c 0
 100 96 100 95 100 93 c 0
 100 88 99 80 97 70 c 0
 91 50 78 22 49 -15 c 0
 47 -18 43 -20 39 -20 c 0
 35 -20 32 -19 30 -17 c 0
 27 -14 25 -11 25 -6 c 0
 25 -3 26 -0 28 2 c 0
 48 27 59 48 66 63 c 1
 65 63 64 63 62 63 c 0
 42 63 25 79 25 100 c 0
 25 121 42 137 62 137 c 1
EndSplineSet
Validated: 1
EndChar

StartChar: bracketleft
Encoding: 91 91 78
Width: 212
Flags: W
HStem: 0 25<75 162> 625 25<75 162>
VStem: 50 112<0 25 625 650> 50 25<25 625>
LayerCount: 2
Fore
SplineSet
162 0 m 1xe0
 75 0 l 1xd0
 50 0 l 2
 50 25 l 1
 50 650 l 1
 162 650 l 1
 162 625 l 1xe0
 75 625 l 1
 75 25 l 1xd0
 162 25 l 1
 162 0 l 1xe0
EndSplineSet
Validated: 1
EndChar

StartChar: bracketright
Encoding: 93 93 79
Width: 212
Flags: W
HStem: 0 25<50 138> 625 25<50 138>
VStem: 50 113<0 25 625 650> 138 25<25 625>
LayerCount: 2
Fore
SplineSet
50 25 m 1xe0
 138 25 l 1
 138 625 l 1xd0
 50 625 l 1
 50 650 l 1xe0
 138 650 l 1xd0
 163 650 l 1
 163 0 l 1xe0
 138 0 l 1xd0
 50 0 l 1
 50 25 l 1xe0
EndSplineSet
Validated: 1
EndChar

StartChar: underscore
Encoding: 95 95 80
Width: 500
Flags: W
HStem: -62 24<50 450>
LayerCount: 2
Fore
SplineSet
50 -38 m 1
 450 -38 l 1
 450 -62 l 1
 50 -62 l 1
 50 -38 l 1
EndSplineSet
Validated: 1
EndChar

StartChar: backslash
Encoding: 92 92 81
Width: 224
Flags: W
HStem: 0 21G<191.908 224> 630 20G<0 32.0923>
VStem: -0 224
LayerCount: 2
Fore
SplineSet
26 650 m 1
 224 0 l 1
 198 0 l 1
 -0 650 l 1
 26 650 l 1
EndSplineSet
Validated: 1
EndChar

StartChar: quotesingle
Encoding: 39 39 82
Width: 100
Flags: W
HStem: 493 157<38 62>
VStem: 25 50<529 650> 38 24<493 535>
LayerCount: 2
Fore
SplineSet
25 650 m 1xc0
 75 650 l 1
 75 571 l 1xc0
 62 493 l 1
 38 493 l 1xa0
 25 571 l 1
 25 650 l 1xc0
EndSplineSet
Validated: 1
EndChar

StartChar: quotedbl
Encoding: 34 34 83
Width: 200
Flags: W
HStem: 493 157<38 62 138 162>
VStem: 25 50<529 650> 38 24<493 535> 125 50<529 650> 138 24<493 535>
LayerCount: 2
Fore
SplineSet
25 650 m 1xc0
 75 650 l 1
 75 571 l 1xc0
 62 493 l 1
 38 493 l 1xa0
 25 571 l 1
 25 650 l 1xc0
125 650 m 1x90
 175 650 l 1
 175 571 l 1x90
 162 493 l 1
 138 493 l 1x88
 125 571 l 1
 125 650 l 1x90
EndSplineSet
Validated: 1
EndChar

StartChar: numbersign
Encoding: 35 35 84
Width: 595
Flags: W
HStem: 0 21G<140 167.857 342 369.857> 217 25<50 171 199 372 401 518> 409 25<77 198 226 399 428 545> 630 20G<228.222 257 430.222 459>
LayerCount: 2
Fore
SplineSet
433 650 m 1
 459 650 l 1
 428 434 l 1
 545 434 l 1
 545 409 l 1
 425 409 l 1
 401 242 l 1
 518 242 l 1
 518 217 l 1
 398 217 l 1
 367 0 l 1
 342 0 l 1
 372 217 l 1
 196 217 l 1
 165 0 l 1
 140 0 l 1
 171 217 l 1
 50 217 l 1
 50 242 l 1
 174 242 l 1
 198 409 l 1
 77 409 l 1
 77 434 l 1
 201 434 l 1
 231 650 l 1
 257 650 l 1
 226 434 l 1
 403 434 l 1
 433 650 l 1
399 409 m 1
 223 409 l 1
 199 242 l 1
 376 242 l 1
 399 409 l 1
EndSplineSet
Validated: 1
EndChar

StartChar: dollar
Encoding: 36 36 85
Width: 431
Flags: W
HStem: 0 21G<203 228> 59 30<131.619 203 228 288.429> 561 30<143.011 203 228 299.816> 630 20G<203 228>
VStem: 50 30<133.058 189 405.406 507.162> 203 25<0 59 89 305 344 561 591 650> 351 30<142.462 244.178 460 516.193>
CounterMasks: 1 0e
LayerCount: 2
Fore
SplineSet
228 650 m 1
 228 591 l 1
 274 590 381 579 381 460 c 1
 351 460 l 1
 351 551 272 560 228 561 c 1
 228 337 l 1
 299 315 381 288 381 189 c 0
 381 118 317 64 228 59 c 1
 228 0 l 1
 203 0 l 1
 203 59 l 1
 158 60 50 70 50 189 c 1
 80 189 l 1
 80 99 160 90 203 89 c 1
 203 313 l 1
 132 335 50 362 50 460 c 1
 50 532 114 586 203 591 c 1
 203 650 l 1
 228 650 l 1
203 561 m 1
 126 556 80 511 80 460 c 1
 80 388 134 366 203 344 c 1
 203 561 l 1
228 89 m 1
 306 94 351 139 351 189 c 0
 351 262 297 284 228 305 c 1
 228 89 l 1
EndSplineSet
Validated: 1
EndChar

StartChar: parenleft
Encoding: 40 40 86
Width: 232
Flags: W
HStem: 0 21G<138 186> 630 20G<139.5 187>
VStem: 50 25<232.218 418.921>
LayerCount: 2
Fore
SplineSet
157 650 m 1
 187 650 l 1
 159 605 75 461 75 325 c 0
 75 192 156 48 186 0 c 1
 156 0 l 1
 120 60 50 194 50 325 c 0
 50 457 122 592 157 650 c 1
EndSplineSet
Validated: 1
EndChar

StartChar: parenright
Encoding: 41 41 87
Width: 232
Flags: W
HStem: 0 21G<51 99> 630 20G<50 97.5>
VStem: 162 25<232.218 418.921>
LayerCount: 2
Fore
SplineSet
80 650 m 1
 115 592 187 457 187 325 c 0
 187 194 117 60 81 0 c 1
 51 0 l 1
 81 48 162 192 162 325 c 0
 162 461 78 605 50 650 c 1
 80 650 l 1
EndSplineSet
Validated: 1
EndChar

StartChar: asterisk
Encoding: 42 42 88
Width: 287
Flags: W
HStem: 554 24<29.25 53.2917 233.417 257.75> 630 20G<131 156>
VStem: 131 25<553 650>
LayerCount: 2
Fore
SplineSet
31 578 m 1
 131 553 l 1
 131 650 l 1
 156 650 l 1
 156 553 l 1
 256 578 l 1
 262 554 l 1
 164 530 l 1
 228 443 l 1
 208 428 l 1
 143 516 l 1
 79 427 l 1
 59 442 l 1
 122 530 l 1
 25 554 l 1
 31 578 l 1
EndSplineSet
Validated: 1
EndChar

StartChar: ampersand
Encoding: 38 38 89
Width: 634
Flags: W
HStem: -0 25<187.155 349.83> 625 25<206.413 324.364>
VStem: 50 25<121.063 226.79> 128 26<473.469 577.92> 376 25<478.606 576.277>
LayerCount: 2
Fore
SplineSet
265 650 m 0
 313 650 348 634 371 610 c 0
 392 586 401 555 401 527 c 0
 401 466 359 421 306 384 c 0
 290 373 273 363 257 354 c 1
 281 327 308 299 335 269 c 0
 386 215 428 168 466 126 c 1
 492 167 511 226 515 310 c 1
 540 309 l 1
 535 218 514 154 483 107 c 1
 514 74 556 29 584 0 c 1
 550 0 l 1
 526 24 499 54 468 87 c 1
 456 72 443 59 429 49 c 0
 372 6 305 -0 258 -0 c 0
 212 -0 161 14 121 44 c 0
 80 73 50 120 50 181 c 0
 50 243 98 286 134 310 c 0
 159 327 188 343 217 360 c 1
 207 371 197 383 188 394 c 0
 153 438 128 480 128 525 c 0
 128 571 147 603 174 623 c 0
 201 643 235 650 265 650 c 0
265 625 m 0
 239 625 210 618 189 603 c 0
 168 587 154 564 154 525 c 0
 154 490 174 452 208 409 c 0
 218 397 228 385 239 373 c 1
 257 383 275 394 291 405 c 0
 342 440 376 478 376 527 c 0
 376 550 369 574 352 593 c 0
 335 611 308 625 265 625 c 0
235 341 m 1
 203 323 173 306 148 290 c 0
 114 267 75 230 75 181 c 0
 75 127 100 90 135 64 c 0
 171 38 218 25 258 25 c 0
 302 25 363 31 414 69 c 0
 427 79 440 91 451 105 c 1
 413 148 369 196 317 253 c 0
 288 284 260 313 235 341 c 1
EndSplineSet
Validated: 1
EndChar

StartChar: percent
Encoding: 37 37 90
Width: 803
Flags: W
HStem: 0 25<583.495 666.917> 287 25<578.705 671.317> 338 25<133.61 219.972> 625 25<130.505 223.117>
VStem: 50 25<431.747 559.371> 279 25<431.536 559.849> 498 25<94.1406 221.661> 727 25<94.1406 222.646>
LayerCount: 2
Fore
SplineSet
177 363 m 0
 229 363 279 414 279 494 c 0
 279 575 237 625 177 625 c 0
 78 625 75 508 75 494 c 0
 75 414 124 363 177 363 c 0
177 338 m 0
 106 338 50 405 50 495 c 0
 50 583 99 650 177 650 c 0
 254 650 304 583 304 494 c 0
 304 405 247 338 177 338 c 0
610 650 m 1
 640 650 l 1
 192 0 l 1
 162 0 l 1
 610 650 l 1
625 25 m 0
 678 25 727 77 727 157 c 0
 727 238 685 287 625 287 c 0
 526 287 523 170 523 157 c 0
 523 77 573 25 625 25 c 0
625 0 m 0
 555 0 498 67 498 157 c 0
 498 246 548 312 625 312 c 0
 703 312 752 246 752 157 c 0
 752 67 696 0 625 0 c 0
EndSplineSet
Validated: 1
EndChar

StartChar: at
Encoding: 64 64 91
Width: 758
Flags: W
HStem: -0 25<279.512 477.376> 164 25<321.703 410.173 535.295 626.226> 455 25<324.052 428.1> 625 25<291.222 473.916>
VStem: 50 25<240.534 410.286> 233 25<261.655 384.489> 485 31<260.759 397.073> 492 26<407 488> 684 25<259.158 416.515>
LayerCount: 2
Fore
SplineSet
358 164 m 0xfe80
 272 171 233 257 233 323 c 0
 233 387 267 466 356 478 c 0
 365 479 373 480 381 480 c 0
 437 480 473 448 492 407 c 1
 493 441 493 474 493 488 c 1
 518 488 l 1xfd80
 518 411 516 352 516 308 c 0
 516 263 519 233 525 216 c 0
 532 201 541 189 582 189 c 0
 637 189 684 237 684 332 c 0
 684 468 595 625 379 625 c 0
 217 625 75 513 75 318 c 0
 75 240 125 25 370 25 c 0
 418 25 474 34 539 53 c 1
 546 29 l 1
 479 9 420 -0 369 -0 c 0
 111 -0 50 225 50 318 c 0
 50 527 205 650 379 650 c 0
 607 650 709 482 709 332 c 0
 709 229 655 164 582 164 c 0
 518 164 498 192 493 250 c 1
 467 201 417 164 366 164 c 0
 363 164 361 164 358 164 c 0xfe80
366 189 m 4
 422 189 481 248 485 313 c 4
 485 317 485 320 485 324 c 4xfe80
 485 384 457 455 379 455 c 4
 373 455 366 455 359 454 c 4
 287 443 258 380 258 323 c 4
 258 255 301 189 366 189 c 4
EndSplineSet
Validated: 1
EndChar

StartChar: braceleft
Encoding: 123 123 92
Width: 230
Flags: W
HStem: -0 25<151.718 206> 313 24<0 53.9982> 625 25<151.718 206>
VStem: 90 25<66.0078 270.992 379.008 583.992>
CounterMasks: 1 e0
LayerCount: 2
Fore
SplineSet
206 650 m 1
 206 625 l 1
 157 625 138 609 127 584 c 0
 116 558 115 520 115 481 c 0
 115 476 115 472 115 467 c 0
 115 433 114 398 101 369 c 0
 93 350 80 335 60 325 c 1
 80 315 93 300 101 281 c 0
 114 252 115 217 115 183 c 0
 115 178 115 174 115 169 c 0
 115 130 116 92 127 66 c 0
 138 41 157 25 206 25 c 1
 206 -0 l 1
 151 -0 119 23 104 56 c 0
 90 89 90 130 90 169 c 0
 90 208 90 246 78 271 c 0
 67 297 48 313 0 313 c 1
 0 337 l 1
 48 337 67 353 78 379 c 0
 90 404 90 442 90 481 c 0
 90 520 90 561 104 594 c 0
 119 627 151 650 206 650 c 1
EndSplineSet
Validated: 1
EndChar

StartChar: braceright
Encoding: 125 125 93
Width: 231
Flags: W
HStem: -0 25<25 79.2226> 313 24<176.115 231> 625 25<25 79.2226>
VStem: 115 25<66.0078 270.992 379.008 583.992>
CounterMasks: 1 e0
LayerCount: 2
Fore
SplineSet
25 650 m 1
 80 650 112 627 126 594 c 0
 139 565 140 530 140 495 c 0
 140 490 140 486 140 481 c 0
 140 442 141 404 152 379 c 0
 163 353 182 337 231 337 c 1
 231 313 l 1
 182 313 163 297 152 271 c 0
 141 246 140 208 140 169 c 0
 140 164 140 160 140 155 c 0
 140 120 139 85 126 56 c 0
 112 23 80 -0 25 -0 c 1
 25 25 l 1
 73 25 92 41 103 66 c 0
 115 92 115 130 115 169 c 0
 115 208 115 248 129 281 c 0
 137 300 151 315 171 325 c 1
 151 335 137 350 129 369 c 0
 115 402 115 442 115 481 c 0
 115 520 115 558 103 584 c 0
 92 609 73 625 25 625 c 1
 25 650 l 1
EndSplineSet
Validated: 1
EndChar

StartChar: quoteleft
Encoding: 8216 8216 94
Width: 125
Flags: W
HStem: 575 75<59 96.2773>
VStem: 25 75<578.49 646.277>
LayerCount: 2
Fore
SplineSet
25 606 m 2
 25 613 l 2
 25 633 42 650 63 650 c 0
 83 650 100 633 100 613 c 0
 100 592 83 575 63 575 c 2
 59 575 l 1
 80 530 100 517 100 506 c 0
 100 501 97 493 86 493 c 0
 74 493 25 560 25 606 c 2
EndSplineSet
Validated: 1
EndChar

StartChar: quoteright
Encoding: 8217 8217 95
Width: 125
Flags: W
HStem: 575 75<28.7227 66>
VStem: 25 75<578.596 646.277>
LayerCount: 2
Fore
SplineSet
39 493 m 0
 31 493 25 499 25 506 c 0
 25 517 50 536 66 575 c 1
 65 575 64 575 62 575 c 0
 42 575 25 592 25 613 c 0
 25 633 42 650 62 650 c 0
 83 650 100 633 100 613 c 0
 100 612 100 611 100 610 c 0
 100 609 100 607 100 606 c 0
 100 589 93 552 49 498 c 0
 47 495 43 493 39 493 c 0
EndSplineSet
Validated: 1
EndChar

StartChar: quotedblleft
Encoding: 8220 8220 96
Width: 250
Flags: W
HStem: 575 75<59 96.2773 184 221.277>
VStem: 25 75<579.604 646.277> 150 75<579.604 646.277>
LayerCount: 2
Fore
SplineSet
225 506 m 0
 225 499 219 493 211 493 c 0
 197 493 150 563 150 606 c 0
 150 607 150 609 150 610 c 0
 150 611 150 612 150 613 c 0
 150 633 167 650 188 650 c 0
 208 650 225 633 225 613 c 0
 225 592 208 575 188 575 c 0
 186 575 185 575 184 575 c 1
 200 536 225 517 225 506 c 0
100 506 m 0
 100 499 94 493 86 493 c 0
 72 493 25 563 25 606 c 0
 25 607 25 609 25 610 c 0
 25 611 25 612 25 613 c 0
 25 633 42 650 63 650 c 0
 83 650 100 633 100 613 c 0
 100 592 83 575 63 575 c 0
 61 575 60 575 59 575 c 1
 75 536 100 517 100 506 c 0
EndSplineSet
Validated: 1
EndChar

StartChar: quotedblright
Encoding: 8221 8221 97
Width: 250
Flags: W
HStem: 575 75<28.7227 66 153.723 191>
VStem: 25 75<578.596 646.277> 150 75<578.596 646.277>
LayerCount: 2
Fore
SplineSet
39 493 m 0
 31 493 25 499 25 506 c 0
 25 517 50 536 66 575 c 1
 65 575 64 575 62 575 c 0
 42 575 25 592 25 613 c 0
 25 633 42 650 62 650 c 0
 83 650 100 633 100 613 c 0
 100 612 100 611 100 610 c 0
 100 609 100 607 100 606 c 0
 100 589 93 552 49 498 c 0
 47 495 43 493 39 493 c 0
164 493 m 0
 156 493 150 499 150 506 c 0
 150 517 175 536 191 575 c 1
 190 575 189 575 187 575 c 0
 167 575 150 592 150 613 c 0
 150 633 167 650 187 650 c 0
 208 650 225 633 225 613 c 0
 225 612 225 611 225 610 c 0
 225 609 225 607 225 606 c 0
 225 589 218 552 174 498 c 0
 172 495 168 493 164 493 c 0
EndSplineSet
Validated: 1
EndChar

StartChar: uE140A
Encoding: 922634 922634 98
Width: 652
Flags: W
HStem: 100 25<337.707 466.334> 157 25<144.087 238.577> 421 24<146.177 239.47> 475 25<338.263 466.334> 558 52<306.418 357.582 394.386 445.582>
VStem: 202 25<235.496 363.943> 306 52<558.418 609.614> 394 52<558.418 609.614> 577 25<235.859 364.141>
LayerCount: 2
Fore
SplineSet
402 500 m 4
 513 500 602 410 602 300 c 4
 602 190 513 100 402 100 c 4
 344 100 292 125 255 165 c 4
 247 162 234 159 217 157 c 4
 212 157 207 157 202 157 c 4
 196 157 190 157 184 158 c 4
 145 162 97 181 50 231 c 5
 50 270 l 5
 99 206 149 187 187 183 c 4
 193 182 199 182 205 182 c 4
 219 182 230 184 239 186 c 5
 216 218 202 257 202 300 c 4
 202 343 216 383 240 416 c 5
 231 418 217 421 201 421 c 4
 197 421 192 420 187 420 c 4
 149 415 99 396 50 332 c 5
 50 371 l 5
 97 421 145 440 184 444 c 4
 190 445 196 445 202 445 c 4
 207 445 212 445 217 445 c 4
 235 444 249 440 257 437 c 4
 294 476 345 500 402 500 c 4
402 475 m 0
 306 475 227 397 227 300 c 0
 227 203 306 125 402 125 c 0
 499 125 577 203 577 300 c 0
 577 397 499 475 402 475 c 0
306 584 m 0
 306 599 318 610 332 610 c 0
 346 610 358 599 358 584 c 0
 358 570 346 558 332 558 c 0
 318 558 306 570 306 584 c 0
394 584 m 0
 394 599 405 610 420 610 c 0
 434 610 446 599 446 584 c 0
 446 570 434 558 420 558 c 0
 405 558 394 570 394 584 c 0
EndSplineSet
Validated: 1
EndChar

StartChar: uE140B
Encoding: 922635 922635 99
Width: 500
Flags: W
HStem: 100 25<185.859 314.141> 475 25<185.859 313.903> 563 119G<64 69 337.5 342.5 385 409> 603 21G<70 144 263 336.286> 617 15<109 149.952 257.013 297.5> 677 15<161.04 245.156>
VStem: 50 25<236.065 364.334> 60 14<644.5 681.952> 243 50<-124 70> 250 50<-124 70> 332 15<641 681.952> 377 25<453.155 577.975> 425 25<236.065 364.613>
LayerCount: 2
Fore
SplineSet
385 583 m 1xc278
 409 578 l 1
 409 578 402 544 402 494 c 0
 402 473 403 450 407 424 c 1
 434 390 450 347 450 300 c 0
 450 190 360 100 250 100 c 0
 140 100 50 190 50 300 c 0
 50 411 140 500 250 500 c 0
 299 500 344 483 378 453 c 1
 377 468 377 481 377 494 c 0
 377 547 385 583 385 583 c 1xc278
250 475 m 0
 153 475 75 397 75 300 c 0
 75 204 153 125 250 125 c 0
 347 125 425 204 425 300 c 0
 425 397 347 475 250 475 c 0
293 71 m 1xc0b8
 300 -124 l 1
 250 -125 l 1xc078
 243 70 l 1
 293 71 l 1xc0b8
332 603 m 1xd138
 263 617 l 2
 259 618 257 621 257 625 c 0
 257 626 l 0
 257 630 261 632 264 632 c 0
 265 632 265 632 266 632 c 0
 309 623 l 1
 282 658 243 677 203 677 c 0
 163 677 125 658 97 623 c 1
 141 632 l 2
 142 632 l 0
 146 632 149 630 150 626 c 0
 150 625 l 0
 150 621 147 618 144 617 c 1xcd38
 74 603 l 1xd138
 60 673 l 2
 60 674 l 0
 60 678 62 681 66 682 c 0
 67 682 l 0xe138
 71 682 74 679 74 676 c 1
 84 631 l 1
 114 670 157 692 203 692 c 0xc538
 225 692 280 686 323 631 c 1
 332 676 l 2
 333 679 336 682 339 682 c 0
 340 682 340 682 341 682 c 0xe138
 344 681 347 678 347 674 c 0
 347 673 l 0
 332 603 l 1xd138
EndSplineSet
Validated: 1
EndChar

StartChar: uE1402
Encoding: 922626 922626 100
Width: 500
Flags: W
HStem: 100 25<185.859 314.141> 475 24<189.689 228 253 310.311> 704 20G<228 253 337 362>
VStem: 50 25<235.859 364.368> 228 25<500 724> 337 25<480 689> 425 25<235.859 364.399>
LayerCount: 2
Fore
SplineSet
228 724 m 1
 253 724 l 1
 253 500 l 1
 283 499 312 492 337 480 c 1
 337 689 l 1
 362 689 l 1
 362 465 l 1
 415 429 450 369 450 300 c 0
 450 190 360 100 250 100 c 0
 140 100 50 190 50 300 c 0
 50 403 128 488 228 499 c 1
 228 724 l 1
250 475 m 0
 153 475 75 397 75 300 c 0
 75 203 153 125 250 125 c 0
 347 125 425 203 425 300 c 0
 425 397 347 475 250 475 c 0
EndSplineSet
Validated: 1
EndChar

StartChar: uE1403
Encoding: 922627 922627 101
Width: 500
Flags: W
HStem: 100 25<185.859 314.141> 475 25<253 314.312> 656 48G<141 166 228 253 337 362>
VStem: 50 25<235.859 363.522> 141 25<481 656> 228 25<500 724> 337 25<480 689> 425 25<235.859 364.399>
LayerCount: 2
Fore
SplineSet
228 724 m 1
 253 724 l 1
 253 500 l 1
 283 499 312 492 337 480 c 1
 337 689 l 1
 362 689 l 1
 362 465 l 1
 415 429 450 369 450 300 c 0
 450 190 360 100 250 100 c 0
 140 100 50 190 50 300 c 0
 50 370 86 432 141 468 c 1
 141 656 l 1
 166 656 l 1
 166 481 l 1
 185 490 206 496 228 499 c 1
 228 724 l 1
250 475 m 0
 153 475 75 397 75 300 c 0
 75 203 153 125 250 125 c 0
 347 125 425 203 425 300 c 0
 425 397 347 475 250 475 c 0
EndSplineSet
Validated: 1
EndChar

StartChar: uE1404
Encoding: 922628 922628 102
Width: 500
Flags: W
HStem: 100 25<185.859 314.141> 475 25<231.188 293.814> 661 20G<123 148 205 230 274 299 352 377>
VStem: 50 25<235.859 364.091> 123 25<472 638> 205 25<499 681> 274 25<498 681> 352 25<472 644> 425 25<236.031 308>
LayerCount: 2
Fore
SplineSet
205 681 m 1
 230 681 l 1
 230 499 l 1
 237 500 243 500 250 500 c 0
 258 500 266 499 274 498 c 1
 274 681 l 1
 299 681 l 1
 299 494 l 1
 318 489 336 482 352 472 c 1
 352 644 l 1
 377 644 l 1
 377 454 l 1
 422 417 450 362 450 300 c 0
 450 190 360 100 250 100 c 0
 140 100 50 190 50 300 c 0
 50 362 78 418 123 454 c 1
 123 638 l 1
 148 638 l 1
 148 472 l 1
 165 482 185 490 205 495 c 1
 205 681 l 1
250 475 m 0
 153 475 75 397 75 300 c 0
 75 203 153 125 250 125 c 0
 347 125 425 203 425 300 c 0
 425 303 425 306 425 308 c 1
 286 299 l 1
 285 324 l 1
 422 333 l 1
 406 414 335 475 250 475 c 0
EndSplineSet
Validated: 1
EndChar

StartChar: uE1405
Encoding: 922629 922629 103
Width: 500
Flags: W
HStem: 100 25<185.859 314.141> 475 25<227.508 314.141> 525 21G<50 75 96 121> 584 25<75 151> 679 25<121 202>
VStem: 50 25<235.859 363.645 525 584> 96 25<620 679> 151 25<486 584> 202 25<499 679> 425 25<235.859 364.141>
LayerCount: 2
Fore
SplineSet
96 704 m 1
 121 704 l 1
 202 704 l 1
 227 704 l 1
 227 499 l 1
 235 500 242 500 250 500 c 0
 360 500 450 410 450 300 c 0
 450 190 360 100 250 100 c 0
 140 100 50 190 50 300 c 0
 50 374 91 439 151 474 c 1
 151 584 l 1
 75 584 l 1
 75 525 l 1
 50 525 l 1
 50 609 l 1
 75 609 l 1
 151 609 l 1
 176 609 l 1
 176 486 l 1
 185 489 193 492 202 494 c 2
 202 679 l 1
 121 679 l 1
 121 620 l 1
 96 620 l 1
 96 704 l 1
250 475 m 0
 153 475 75 397 75 300 c 0
 75 203 153 125 250 125 c 0
 347 125 425 203 425 300 c 0
 425 397 347 475 250 475 c 0
EndSplineSet
Validated: 1
EndChar

StartChar: uE1406
Encoding: 922630 922630 104
Width: 511
Flags: W
HStem: 100 25<185.859 314.091> 475 25<185.859 313.987>
VStem: 50 25<235.859 364.141> 425 25<235.688 364.312> 436 25<327.077 515.257>
LayerCount: 2
Fore
SplineSet
283 800 m 1xe8
 315 800 l 1
 362 741 461 595 461 408 c 0xe8
 461 373 458 336 450 299 c 1xf0
 449 189 360 100 250 100 c 0
 140 100 50 190 50 300 c 0
 50 410 140 500 250 500 c 0
 334 500 405 448 435 375 c 1
 436 386 436 397 436 407 c 0
 436 607 318 759 283 800 c 1xe8
250 475 m 0
 153 475 75 397 75 300 c 0
 75 203 153 125 250 125 c 0
 347 125 425 203 425 300 c 0xf0
 425 397 347 475 250 475 c 0
EndSplineSet
Validated: 1
EndChar

StartChar: uE1407
Encoding: 922631 922631 105
Width: 618
Flags: W
HStem: 100 25<303.827 431.935> 211 50<50.1976 75> 475 25<303.666 431.935>
VStem: 171 25<-74 198 287.243 368.584> 543 25<235.859 364.141>
LayerCount: 2
Fore
SplineSet
368 500 m 0
 478 500 568 410 568 300 c 0
 568 190 478 100 368 100 c 0
 295 100 231 139 196 198 c 1
 196 -74 l 1
 171 -74 l 1
 171 227 l 1
 115 211 75 211 75 211 c 2
 61 211 50 223 50 236 c 0
 50 250 61 261 75 261 c 2
 75 261 115 261 169 278 c 0
 168 285 168 293 168 300 c 0
 168 410 257 500 368 500 c 0
368 475 m 0
 271 475 193 397 193 300 c 0
 193 296 193 291 193 287 c 1
 224 298 258 316 291 341 c 0
 295 345 301 346 306 346 c 0
 307 346 308 346 310 346 c 0
 316 345 322 342 326 337 c 0
 329 332 331 327 331 321 c 0
 331 313 328 306 322 302 c 0
 282 271 241 251 204 238 c 1
 229 172 293 125 368 125 c 0
 464 125 543 203 543 300 c 0
 543 397 464 475 368 475 c 0
EndSplineSet
Validated: 1
EndChar

StartChar: uE1408
Encoding: 922632 922632 106
Width: 500
Flags: W
HStem: 0 15<214.556 297.238> 60 15<162 202.952 310.048 351> 100 25<185.859 314.141> 276 25<150.933 275.525> 475 25<185.775 314.141>
VStem: 50 25<236.031 315.33> 113 15<11.0196 51.7778> 385 15<11.0196 52> 425 25<235.859 364.141>
LayerCount: 2
Fore
SplineSet
250 500 m 0
 360 500 450 410 450 300 c 0
 450 190 360 100 250 100 c 0
 140 100 50 190 50 300 c 0
 50 410 140 500 250 500 c 0
250 475 m 0
 169 475 101 420 81 346 c 1
 134 317 170 304 200 301 c 0
 204 301 209 301 213 301 c 0
 240 301 265 309 298 321 c 1
 307 298 l 1
 274 285 245 276 212 276 c 0
 208 276 203 276 198 277 c 0
 164 279 127 293 76 320 c 1
 76 314 75 307 75 300 c 0
 75 203 153 125 250 125 c 0
 347 125 425 203 425 300 c 0
 425 397 347 475 250 475 c 0
386 89 m 1
 400 20 l 0
 400 19 400 19 400 18 c 0
 400 14 398 11 394 11 c 0
 393 11 l 0
 389 11 386 13 385 17 c 2
 376 62 l 1
 346 23 303 0 257 0 c 0
 211 0 167 23 137 62 c 1
 128 16 l 1
 127 13 124 11 120 11 c 0
 119 11 l 0
 116 11 113 14 113 18 c 0
 113 19 113 19 113 20 c 2
 127 89 l 1
 197 75 l 1
 201 74 203 71 203 68 c 0
 203 67 203 67 203 66 c 0
 202 63 199 60 196 60 c 0
 195 60 195 60 194 60 c 2
 150 69 l 1
 178 35 216 15 257 15 c 0
 277 15 324 21 363 69 c 1
 319 60 l 0
 318 60 l 0
 314 60 311 63 310 66 c 0
 310 67 310 67 310 68 c 0
 310 71 313 74 316 75 c 2
 386 89 l 1
EndSplineSet
Validated: 1
EndChar

StartChar: uE1409
Encoding: 922633 922633 107
Width: 511
Flags: W
HStem: 100 25<185.859 313.987> 475 25<185.859 314.091>
VStem: 50 25<235.859 364.141> 425 25<235.688 364.312> 436 25<84.7426 272.923>
LayerCount: 2
Fore
SplineSet
283 -200 m 1xe8
 318 -159 436 -7 436 193 c 0xe8
 436 203 436 214 435 225 c 1
 405 152 334 100 250 100 c 0
 140 100 50 190 50 300 c 0
 50 410 140 500 250 500 c 0
 360 500 449 411 450 301 c 1xf0
 458 264 461 227 461 192 c 0
 461 5 362 -141 315 -200 c 1
 283 -200 l 1xe8
250 125 m 0
 347 125 425 203 425 300 c 0xf0
 425 397 347 475 250 475 c 0
 153 475 75 397 75 300 c 0
 75 203 153 125 250 125 c 0
EndSplineSet
Validated: 1
EndChar

StartChar: uE1800
Encoding: 923648 923648 108
Width: 1098
Flags: W
HStem: 100 25<710.859 839.141> 475 25<717.744 839.141> 605 22<50.0469 54> 657 50<902.214 951.802 998.214 1047.8> 671 25<174.652 341.566> 707 20G<486 520.278>
VStem: 575 25<235.859 363.967> 902 50<657.198 706.802> 950 25<235.859 364.141> 998 50<657.198 706.802>
LayerCount: 2
Fore
SplineSet
258 696 m 0xea40
 378 696 462 627 462 627 c 2
 465 624 467 621 467 617 c 0
 467 614 466 611 464 609 c 0
 462 606 458 605 454 605 c 0
 451 605 449 606 446 607 c 2
 446 607 369 671 258 671 c 0
 148 671 70 607 70 607 c 2
 68 606 65 605 62 605 c 0
 58 605 55 606 53 609 c 0
 51 611 50 614 50 617 c 0
 50 621 51 624 54 627 c 2
 54 627 138 696 258 696 c 0xea40
998 682 m 0
 998 696 1010 707 1023 707 c 0
 1037 707 1048 696 1048 682 c 0
 1048 668 1037 657 1023 657 c 0xf240
 1010 657 998 668 998 682 c 0
902 682 m 0xf340
 902 696 914 707 927 707 c 0
 941 707 952 696 952 682 c 0
 952 668 941 657 927 657 c 0
 914 657 902 668 902 682 c 0xf340
775 475 m 0
 678 475 600 397 600 300 c 0
 600 203 678 125 775 125 c 0
 872 125 950 203 950 300 c 0xe2c0
 950 397 872 475 775 475 c 0
775 500 m 0
 885 500 975 410 975 300 c 0
 975 190 885 100 775 100 c 0
 665 100 575 190 575 300 c 0
 575 362 603 417 647 454 c 1
 486 714 l 1
 508 727 l 1xe6c0
 667 468 l 1
 676 474 686 479 696 484 c 1
 618 758 l 1
 642 765 l 1
 720 492 l 1
 737 497 756 500 775 500 c 0
EndSplineSet
Validated: 1
EndChar

StartChar: uE1801
Encoding: 923649 923649 109
Width: 1098
Flags: W
HStem: 100 25<711.859 840.141> 605 22<51.0469 55> 657 50<903.214 952.802 999.214 1048.8> 671 25<175.652 342.566>
VStem: 576 25<235.859 362.972> 813 25<510 791> 903 50<657.198 706.802> 951 25<235.859 363.945> 999 50<657.198 706.802>
LayerCount: 2
Fore
SplineSet
776 475 m 0xcd80
 679 475 601 397 601 300 c 0
 601 203 679 125 776 125 c 0
 873 125 951 203 951 300 c 0
 951 397 873 475 776 475 c 0xcd80
259 696 m 0xdc80
 379 696 463 627 463 627 c 2
 466 624 468 621 468 617 c 0
 468 614 467 611 465 609 c 0
 463 606 459 605 455 605 c 0
 452 605 450 606 447 607 c 2
 447 607 370 671 259 671 c 0
 149 671 71 607 71 607 c 2
 69 606 66 605 63 605 c 0
 59 605 56 606 54 609 c 0
 52 611 51 614 51 617 c 0
 51 621 52 624 55 627 c 2
 55 627 139 696 259 696 c 0xdc80
999 682 m 0
 999 696 1011 707 1024 707 c 0
 1038 707 1049 696 1049 682 c 0
 1049 668 1038 657 1024 657 c 0xec80
 1011 657 999 668 999 682 c 0
903 682 m 0xee80
 903 696 915 707 928 707 c 0
 942 707 953 696 953 682 c 0
 953 668 942 657 928 657 c 0
 915 657 903 668 903 682 c 0xee80
784 512 m 1
 666 769 l 1
 689 780 l 1
 813 510 l 1
 810 791 l 1
 835 791 l 1
 838 490 l 1
 918 464 976 389 976 300 c 0xcd80
 976 190 886 100 776 100 c 0
 666 100 576 190 576 300 c 0
 576 406 658 492 762 500 c 1
 565 735 l 1
 584 751 l 1
 784 512 l 1
EndSplineSet
Validated: 1
EndChar

StartChar: uE1802
Encoding: 923650 923650 110
Width: 1022
Flags: W
HStem: 100 25<602.062 729.141> 475 25<621.657 688.492> 605 22<50.0519 55> 629 20G<533 558 769 794> 657 50<826.214 875.802 922.214 971.802> 671 25<175.338 342.137>
VStem: 465 25<236.031 289 313.548 361.806> 533 25<469 649> 618 25<499 693> 690 25<499 693> 769 25<471 655> 826 50<657.198 706.802> 840 25<235.859 363.944> 922 50<657.198 706.802>
LayerCount: 2
Fore
SplineSet
259 696 m 0xf7e4
 378 696 463 627 463 627 c 2
 465 624 467 621 467 617 c 0
 467 614 466 611 464 609 c 0
 462 606 459 605 455 605 c 0
 452 605 449 606 447 607 c 2
 447 607 369 671 259 671 c 0
 148 671 70 607 70 607 c 2
 68 606 66 605 63 605 c 0
 59 605 55 606 53 609 c 0
 51 611 50 614 50 617 c 0
 50 621 52 624 55 627 c 2
 55 627 139 696 259 696 c 0xf7e4
922 682 m 0
 922 696 934 707 947 707 c 0
 961 707 972 696 972 682 c 0
 972 668 961 657 947 657 c 0xfbe4
 934 657 922 668 922 682 c 0
826 682 m 0xfbf4
 826 696 838 707 851 707 c 0
 865 707 876 696 876 682 c 0
 876 668 865 657 851 657 c 0
 838 657 826 668 826 682 c 0xfbf4
490 289 m 1
 496 197 572 125 665 125 c 0
 762 125 840 203 840 300 c 0xf3ec
 840 397 762 475 665 475 c 0
 573 475 498 404 491 314 c 1
 614 306 l 1
 612 281 l 1
 490 289 l 1
533 450 m 1
 533 649 l 1
 558 649 l 1
 558 469 l 1
 577 481 597 489 618 495 c 1
 618 693 l 1
 643 693 l 1
 643 499 l 1
 650 500 658 500 665 500 c 0
 674 500 682 500 690 499 c 1
 690 693 l 1
 715 693 l 1
 715 494 l 1
 734 489 752 481 769 471 c 1
 769 655 l 1
 794 655 l 1
 794 453 l 1
 793 453 l 1
 837 417 865 362 865 300 c 0
 865 190 775 100 665 100 c 0
 555 100 465 190 465 300 c 0
 465 360 492 414 533 450 c 1
EndSplineSet
Validated: 1
EndChar

StartChar: uE1803
Encoding: 923651 923651 111
Width: 1098
Flags: W
HStem: 100 25<711.859 840.141> 475 25<740.097 840.141> 523 21G<528 553 608 633> 585 25<553 633> 605 22<51.0469 55> 657 50<903.198 952.802 999.198 1048.8> 671 25<175.652 342.348> 688 25<633 714>
VStem: 528 25<523 585> 576 25<235.859 363.737> 608 25<626 688> 633 25<461 585> 714 25<497 688> 903 50<657.198 706.802> 951 25<235.859 364.141> 999 50<657.198 706.802>
LayerCount: 2
Fore
SplineSet
259 696 m 4xeac9
 379 696 463 627 463 627 c 6
 466 625 468 621 468 617 c 4
 468 614 467 611 465 609 c 4
 463 606 459 605 455 605 c 4
 452 605 449 605 447 607 c 6
 447 607 369 671 259 671 c 4
 149 671 71 607 71 607 c 6
 69 605 66 605 63 605 c 4
 59 605 56 606 54 609 c 4
 52 611 51 614 51 617 c 4
 51 621 52 625 55 627 c 6
 55 627 139 696 259 696 c 4xeac9
999 682 m 4
 999 696 1010 707 1024 707 c 4
 1038 707 1049 696 1049 682 c 4
 1049 668 1038 657 1024 657 c 4xe4c9
 1010 657 999 668 999 682 c 4
903 682 m 4xe4cd
 903 696 914 707 928 707 c 4
 942 707 953 696 953 682 c 4
 953 668 942 657 928 657 c 4
 914 657 903 668 903 682 c 4xe4cd
776 475 m 4
 679 475 601 397 601 300 c 4
 601 203 679 125 776 125 c 4
 873 125 951 203 951 300 c 4xe0cb
 951 397 873 475 776 475 c 4
776 500 m 4
 886 500 976 410 976 300 c 4
 976 190 886 100 776 100 c 4
 666 100 576 190 576 300 c 4
 576 354 598 404 633 440 c 5
 633 585 l 5
 553 585 l 5
 553 523 l 5
 528 523 l 5
 528 585 l 5
 528 610 l 5
 553 610 l 5
 633 610 l 5
 658 610 l 5
 658 461 l 5xf1db
 675 473 694 483 714 490 c 5
 714 688 l 5
 633 688 l 5
 633 626 l 5
 608 626 l 5
 608 688 l 5
 608 713 l 5xf1e9
 633 713 l 5
 714 713 l 5
 738 713 l 5
 739 713 l 5xf1d9
 739 497 l 5
 751 499 763 500 776 500 c 4
EndSplineSet
Validated: 1
EndChar

StartChar: uE1804
Encoding: 923652 923652 112
Width: 1195
Flags: W
HStem: 100 25<661.859 790.141> 453 25<235.992 382.054> 475 25<661.859 789.795> 571 21G<695 720> 657 50<999.198 1048.8 1095.2 1144.8> 664 25<79 539> 707 25<720 901>
VStem: 526 25<235.859 364.141> 695 25<571 707> 901 25<236.031 360.788 397 707> 999 50<657.198 706.802> 1095 50<657.198 706.802>
LayerCount: 2
Fore
SplineSet
309 478 m 0xd5f0
 422 478 516 558 539 664 c 5
 79 664 l 1
 102 558 196 478 309 478 c 0xd5f0
569 689 m 1
 567 675 l 2
 548 550 439 453 309 453 c 0
 179 453 71 550 52 675 c 2
 50 689 l 1
 569 689 l 1
1095 682 m 0
 1095 696 1106 707 1120 707 c 0
 1134 707 1145 696 1145 682 c 0
 1145 668 1134 657 1120 657 c 0x99f0
 1106 657 1095 668 1095 682 c 0
999 682 m 0
 999 696 1010 707 1024 707 c 0
 1038 707 1049 696 1049 682 c 0
 1049 668 1038 657 1024 657 c 0
 1010 657 999 668 999 682 c 0
726 475 m 0xb1f0
 629 475 551 397 551 300 c 0
 551 203 629 125 726 125 c 0
 823 125 901 203 901 300 c 1
 901 301 l 2
 900 397 822 475 726 475 c 0xb1f0
720 707 m 1xb3f0
 720 571 l 1
 695 571 l 1
 695 707 l 1
 695 732 l 1
 720 732 l 1
 901 732 l 1
 925 732 l 1
 926 732 l 1
 926 300 l 2
 926 190 836 100 726 100 c 0
 616 100 526 190 526 300 c 0
 526 410 616 500 726 500 c 0
 801 500 867 459 901 397 c 1
 901 707 l 1
 720 707 l 1xb3f0
EndSplineSet
Validated: 1
EndChar

StartChar: uE1805
Encoding: 923653 923653 113
Width: 856
Flags: W
HStem: 100 25<245.083 371.385> 274 25<289.863 360.56> 475 25<246.981 373.575> 491 24<573.25 596.16 778.56 801.042> 525 25<235.992 382.054> 567 20G<674 699.206> 736 25<79 539>
VStem: 110 24<237.615 362.556> 284 50<-175 66> 484 25<236.09 362.788> 675 25<490 587>
LayerCount: 2
Fore
SplineSet
575 515 m 1xdfe0
 675 490 l 1
 674 587 l 1
 699 587 l 1
 700 490 l 1
 799 515 l 1
 806 491 l 1
 708 466 l 1
 772 380 l 1
 751 365 l 1
 687 453 l 1
 623 364 l 1
 602 379 l 1
 666 466 l 1
 569 491 l 1
 575 515 l 1xdfe0
284 -175 m 1
 284 66 l 1
 334 66 l 1
 334 -175 l 1
 284 -175 l 1
382 459 m 0
 359 470 334 475 310 475 c 0xefe0
 258 475 208 452 175 412 c 1
 210 364 238 337 265 322 c 0
 294 306 322 302 362 299 c 1
 360 274 l 1
 319 277 285 282 252 301 c 0
 222 318 194 345 160 391 c 1
 157 385 153 379 150 373 c 0
 139 349 134 324 134 300 c 0
 134 234 172 170 236 141 c 0
 260 130 285 125 309 125 c 0
 375 125 439 163 468 227 c 0
 479 251 484 276 484 300 c 0
 484 366 446 430 382 459 c 0
393 482 m 0
 466 448 509 376 509 300 c 0
 509 272 503 244 491 217 c 0
 457 144 384 100 308 100 c 0
 281 100 253 106 226 118 c 0
 153 152 110 225 110 301 c 0
 110 329 116 357 128 384 c 0
 162 457 234 500 310 500 c 0
 338 500 366 494 393 482 c 0
309 550 m 0
 422 550 516 630 539 736 c 5
 386 736 232 736 79 736 c 1
 102 630 196 550 309 550 c 0
309 525 m 0
 179 525 71 622 52 747 c 2
 50 761 l 1
 569 761 l 1
 567 747 l 2
 548 622 439 525 309 525 c 0
EndSplineSet
Validated: 1
EndChar

StartChar: uE1806
Encoding: 923654 923654 114
Width: 1397
Flags: W
HStem: -180 25<430.497 629.687> 100 25<465.859 594.141> 320 26<1153.77 1206.54> 475 25<465.859 593.795> 548 21G<1202.97 1205.5> 662 9G<705 730 1244.03 1268> 732 25<1155.36 1202.97> 755 25<430.313 629.687>
VStem: 50 25<200.707 396.709> 330 25<235.859 364.141> 505 50<-98 43> 705 25<236.031 360.788 397 662> 985 25<200.313 399.687> 1078 25<433.979 638.378> 1257 26<437.317 557>
LayerCount: 2
Fore
SplineSet
1234 720 m 0xfefe
 1234 708 1222 708 1222 708 c 0
 1210 708 1198 732 1180 732 c 0
 1176 732 1172 731 1167 728 c 0
 1128 710 1103 625 1103 536 c 0
 1103 492 1109 448 1123 410 c 0
 1138 368 1160 346 1181 346 c 0
 1192 346 1204 353 1214 367 c 0
 1240 400 1257 469 1257 540 c 0
 1257 546 1257 551 1257 557 c 1
 1237 554 1216 551 1195 548 c 1
 1252 691 l 1
 1284 651 1315 610 1347 570 c 1
 1282 561 l 1
 1282 552 1283 544 1283 535 c 0
 1283 406 1232 320 1179 320 c 0
 1151 320 1122 345 1100 402 c 0
 1085 443 1078 492 1078 540 c 0
 1078 635 1107 728 1156 751 c 0
 1164 755 1172 757 1179 757 c 0
 1209 757 1234 729 1234 720 c 0xfefe
530 780 m 0xfdfe
 795 780 1010 565 1010 300 c 0
 1010 35 795 -180 530 -180 c 0
 266 -180 52 33 50 297 c 1
 50 300 l 2
 50 565 265 780 530 780 c 0xfdfe
75 300 m 0
 75 49 279 -155 530 -155 c 0
 781 -155 985 49 985 300 c 0
 985 551 781 755 530 755 c 0
 279 755 75 551 75 300 c 0
530 475 m 0
 433 475 355 397 355 300 c 0
 355 203 433 125 530 125 c 0
 627 125 705 203 705 300 c 2
 705 301 l 1
 704 397 626 475 530 475 c 0
505 -98 m 1
 505 43 l 1
 555 43 l 1
 555 -98 l 1
 505 -98 l 1
705 397 m 1
 705 662 l 1
 730 662 l 1
 730 300 l 2
 730 190 640 100 530 100 c 0
 420 100 330 190 330 300 c 0
 330 410 420 500 530 500 c 0
 605 500 671 459 705 397 c 1
EndSplineSet
Validated: 1
EndChar

StartChar: uE1807
Encoding: 923655 923655 115
Width: 867
Flags: W
HStem: 100 25<185.859 314.141> 145 25<572.327 615.301 728.327 771.303> 193 20<659 660.595 815 816.595> 475 25<185.859 313.748> 559 20G<417 442.522> 559 20G<417 442.522>
VStem: 50 25<235.859 364.141> 417 25<401 578> 425 25<235.138 300 300.187 310 401 545.5> 528 25<180.436 297.572> 684 25<180.436 296.312> 742 24<288.097 325.875>
LayerCount: 2
Fore
SplineSet
442 579 m 1xfb70
 449 311 l 2
 449 307 450 304 450 300 c 0
 450 299 l 1xfaf0
 450 189 360 100 250 100 c 0
 140 100 50 190 50 300 c 0
 50 410 140 500 250 500 c 0
 323 500 387 460 422 401 c 1
 417 578 l 1
 442 579 l 1xfb70
250 475 m 2
 153 475 75 397 75 300 c 0
 75 203 153 125 250 125 c 0
 347 125 425 202 425 299 c 2
 424 310 l 2
 419 402 344 475 250 475 c 2
590 380 m 1
 610 303 l 2
 612 296 608 290 601 288 c 0
 594 286 588 290 586 297 c 2
 577 330 l 1
 568 308 559 281 555 255 c 0
 553 245 553 235 553 226 c 0
 553 218 554 211 555 205 c 0
 558 191 563 180 572 174 c 0
 579 169 585 169 592 170 c 0
 599 171 607 175 614 181 c 0
 628 192 638 207 638 207 c 2
 640 210 645 213 649 213 c 0
 652 213 654 211 656 210 c 0
 659 208 661 204 661 200 c 0
 661 197 660 195 659 193 c 2
 659 193 647 176 629 162 c 0
 620 155 609 149 597 146 c 0
 594 145 591 145 587 145 c 0
 577 145 566 147 557 154 c 0
 542 165 534 182 530 200 c 0
 528 208 528 217 528 226 c 0
 528 237 528 248 530 259 c 0
 535 290 546 321 557 345 c 1
 518 335 l 2
 511 333 505 337 503 344 c 0
 501 351 504 357 511 359 c 2
 590 380 l 1
746 380 m 1
 766 303 l 2
 768 296 764 290 757 288 c 0
 750 286 744 290 742 297 c 2
 734 330 l 1
 725 308 715 281 711 255 c 0
 709 245 709 235 709 226 c 0
 709 218 710 211 711 205 c 0
 714 191 719 180 728 174 c 0
 735 169 741 169 748 170 c 0
 755 171 763 175 770 181 c 0
 784 192 795 207 795 207 c 2
 797 210 801 213 805 213 c 0
 808 213 810 211 812 210 c 0
 815 208 817 204 817 200 c 0
 817 197 816 195 815 193 c 2
 815 193 803 176 785 162 c 0
 776 155 765 149 753 146 c 0
 750 145 747 145 743 145 c 0
 733 145 722 147 713 154 c 0
 698 165 690 182 686 200 c 0
 684 208 684 217 684 226 c 0
 684 237 685 248 687 259 c 0
 692 290 702 321 713 345 c 1
 674 335 l 2
 667 333 661 337 659 344 c 0
 657 351 661 357 668 359 c 2
 746 380 l 1
EndSplineSet
Validated: 1
EndChar

StartChar: uE1808
Encoding: 923656 923656 116
Width: 755
Flags: W
HStem: 100 25<389.848 518.141> 475 25<400.814 488.427> 588 20G<643.824 675> 645 25<244.25 319.949 573.051 648.75> 752 25<366.115 527.769>
VStem: 201 25<712.462 786.949> 254 25<264.597 332.277> 629 25<235.859 364.165> 667 25<713.111 786.949>
LayerCount: 2
Fore
SplineSet
215 787 m 0
 221 786 226 780 226 774 c 0
 226 773 l 2
 218 696 l 1
 256 722 347 777 447 777 c 0
 547 777 638 722 676 696 c 1
 667 773 l 0
 667 774 l 0
 667 780 672 786 678 787 c 0
 680 787 l 0
 686 787 691 782 692 776 c 2
 705 658 l 1
 587 645 l 0
 586 645 l 0
 580 645 574 650 573 656 c 0
 573 657 l 0
 573 663 578 669 584 670 c 2
 658 678 l 1
 620 703 535 752 447 752 c 0
 359 752 273 703 235 678 c 1
 309 670 l 2
 315 669 320 663 320 657 c 0
 320 656 l 0
 319 650 313 645 307 645 c 0
 306 645 l 2
 188 658 l 1
 201 776 l 2
 202 782 208 787 214 787 c 0
 215 787 l 0
454 475 m 0
 357 475 279 397 279 300 c 0
 279 203 357 125 454 125 c 0
 551 125 629 203 629 300 c 0
 629 397 551 475 454 475 c 0
104 335 m 1
 46 374 l 1
 60 395 l 1
 141 341 l 1
 263 361 l 1
 280 416 321 460 373 483 c 1
 394 667 l 1
 418 664 l 1
 399 493 l 1
 416 498 435 500 454 500 c 0
 466 500 477 499 488 497 c 1
 529 667 l 1
 553 661 l 1
 512 491 l 1
 540 482 566 468 587 449 c 1
 652 608 l 1
 675 599 l 1
 606 430 l 1
 636 395 654 349 654 300 c 0
 654 190 564 100 454 100 c 0
 370 100 297 152 268 226 c 1
 135 315 l 1
 4 294 l 1
 -0 318 l 1
 104 335 l 1
171 321 m 1
 257 264 l 1
 255 276 254 288 254 300 c 0
 254 312 254 323 256 334 c 1
 171 321 l 1
EndSplineSet
Validated: 1
EndChar

StartChar: ccedilla
Encoding: 231 231 117
Width: 458
Flags: W
HStem: -18 25<112.547 175.028> 39 25<241.836 304.383> 100 25<143.939 272.812> 475 25<144.728 272.012>
VStem: 383 25<235.666 364.94>
LayerCount: 2
Fore
SplineSet
106 29 m 0
 115 13 124 7 137 7 c 0
 152 7 173 17 202 34 c 0
 226 48 252 64 279 64 c 0
 300 64 319 53 333 29 c 0
 334 27 334 25 334 23 c 0
 334 15 328 11 322 11 c 0
 318 11 313 13 311 17 c 0
 302 33 292 39 279 39 c 0
 264 39 244 29 215 12 c 0
 191 -2 165 -18 138 -18 c 0
 117 -18 98 -7 84 17 c 0
 83 19 82 21 82 23 c 0
 82 31 89 35 95 35 c 0
 99 35 104 33 106 29 c 0
408 300 m 0
 408 189 319 100 209 100 c 0
 155 100 106 121 70 156 c 1
 87 174 l 1
 118 144 162 125 209 125 c 0
 305 125 383 203 383 300 c 0
 383 399 303 475 209 475 c 0
 153 475 102 449 70 407 c 1
 50 422 l 1
 87 470 144 500 209 500 c 0
 317 500 408 412 408 300 c 0
EndSplineSet
Validated: 1
EndChar

StartChar: Ccedilla
Encoding: 199 199 118
Width: 458
Flags: W
HStem: -18 25<112.547 175.028> 39 25<241.836 304.383> 100 25<143.939 272.812> 475 25<144.728 272.012>
VStem: 383 25<235.666 364.94>
LayerCount: 2
Fore
SplineSet
106 29 m 0
 115 13 124 7 137 7 c 0
 152 7 173 17 202 34 c 0
 226 48 252 64 279 64 c 0
 300 64 319 53 333 29 c 0
 334 27 334 25 334 23 c 0
 334 15 328 11 322 11 c 0
 318 11 313 13 311 17 c 0
 302 33 292 39 279 39 c 0
 264 39 244 29 215 12 c 0
 191 -2 165 -18 138 -18 c 0
 117 -18 98 -7 84 17 c 0
 83 19 82 21 82 23 c 0
 82 31 89 35 95 35 c 0
 99 35 104 33 106 29 c 0
408 300 m 0
 408 189 319 100 209 100 c 0
 155 100 106 121 70 156 c 1
 87 174 l 1
 118 144 162 125 209 125 c 0
 305 125 383 203 383 300 c 0
 383 399 303 475 209 475 c 0
 153 475 102 449 70 407 c 1
 50 422 l 1
 87 470 144 500 209 500 c 0
 317 500 408 412 408 300 c 0
EndSplineSet
Validated: 1
EndChar

StartChar: uE1809
Encoding: 923657 923657 119
Width: 959
Flags: W
HStem: -18 25<613.283 675.164> 39 25<741.836 803.717> 100 25<185.688 245 270 314.312 643.939 772.935> 475 25<185.859 314.141 644.728 772.136>
VStem: 50 25<235.475 364.141> 139 25<-57 120> 245 25<-89 100> 333 25<-63 118> 425 25<236.256 364.141> 884 25<235.666 365.133>
LayerCount: 2
Fore
SplineSet
250 500 m 0
 360 500 450 410 450 300 c 0
 450 229 413 168 358 132 c 1
 358 -63 l 1
 333 -63 l 1
 333 118 l 1
 313 109 292 103 270 101 c 1
 270 -89 l 1
 245 -89 l 1
 245 100 l 1
 216 101 189 108 164 120 c 1
 164 -57 l 1
 139 -57 l 1
 139 134 l 1
 86 170 50 231 50 300 c 0
 50 410 140 500 250 500 c 0
250 475 m 0
 153 475 75 397 75 300 c 0
 75 203 153 125 250 125 c 0
 347 125 425 203 425 300 c 0
 425 397 347 475 250 475 c 0
909 300 m 0
 909 189 819 100 709 100 c 0
 655 100 606 121 570 156 c 1
 587 174 l 1
 618 144 662 125 709 125 c 0
 805 125 884 203 884 300 c 0
 884 399 803 475 709 475 c 0
 653 475 602 449 570 407 c 1
 550 422 l 1
 587 470 644 500 709 500 c 0
 817 500 909 413 909 300 c 0
606 29 m 0
 615 14 625 7 638 7 c 0
 653 7 673 17 702 34 c 0
 726 48 752 64 779 64 c 0
 800 64 819 53 833 29 c 0
 834 27 835 25 835 23 c 0
 835 15 828 11 822 11 c 0
 818 11 813 13 811 17 c 0
 802 32 792 39 779 39 c 0
 764 39 744 29 715 12 c 0
 691 -2 665 -18 638 -18 c 0
 617 -18 598 -7 584 17 c 0
 583 19 582 21 582 23 c 0
 582 31 589 35 595 35 c 0
 599 35 604 33 606 29 c 0
EndSplineSet
Validated: 1
EndChar

StartChar: uE180A
Encoding: 923658 923658 120
Width: 1324
Flags: W
HStem: 100 25<879.859 1008.14> 307 25<520 744> 422 25<199.294 326.598> 475 25<904.489 1008.14> 554 22G<1071 1106.38 1205.45 1241> 645 20G<808 833> 681 24<1042.25 1065.16 1246.84 1269.75>
VStem: 50 25<234 297.103> 450 25<234 297.103> 744 25<236.031 307 332 364.312> 808 25<467 665> 879 25<496 733> 1119 25<235.859 364.141> 1144 25<680 777>
LayerCount: 2
Fore
SplineSet
475 234 m 1xfff0
 450 234 l 1
 450 337 366 422 263 422 c 0
 160 422 75 337 75 234 c 1
 50 234 l 1
 50 351 146 447 263 447 c 0
 380 447 475 351 475 234 c 1xfff0
1044 705 m 1
 1144 680 l 1
 1143 777 l 1
 1168 777 l 1
 1169 680 l 1xfff4
 1268 705 l 1
 1274 681 l 1
 1177 656 l 1
 1241 569 l 1
 1220 555 l 1
 1156 643 l 1
 1092 554 l 1
 1071 568 l 1
 1135 656 l 1
 1038 681 l 1
 1044 705 l 1
944 475 m 0
 847 475 769 397 769 300 c 0
 769 203 847 125 944 125 c 0
 1041 125 1119 203 1119 300 c 0xfff8
 1119 397 1041 475 944 475 c 0
944 500 m 0
 1054 500 1144 410 1144 300 c 0
 1144 190 1054 100 944 100 c 0
 834 100 744 190 744 300 c 0
 744 302 744 305 744 307 c 1
 520 307 l 1
 520 332 l 1
 746 332 l 1
 753 377 776 417 808 447 c 1
 808 665 l 1
 833 665 l 1
 833 467 l 1
 847 476 863 483 879 489 c 1
 879 733 l 1
 904 733 l 1
 904 496 l 1
 917 499 930 500 944 500 c 0
EndSplineSet
Validated: 1
EndChar

StartChar: uE180B
Encoding: 923659 923659 121
Width: 2168
Flags: W
HStem: 100 25<185.688 245 270 314.312 854.859 983.141 1354.86 1483.14 1854.86 1983.14> 195 12<1889.76 1952.18> 390 13<1887.5 1954.43> 475 25<185.859 314.141 559.999 647.45 855.499 983.141 1354.86 1482.93 1854.86 1983.14> 559 20G<1587 1612.52> 559 20G<1587 1612.52>
VStem: 50 25<235.475 364.141> 139 25<-57 120> 245 25<-89 100> 333 25<-63 118> 425 25<236.256 364.141> 719 25<235.859 361.711> 1094 25<235.859 364.141> 1219 25<235.859 364.141> 1587 25<401 578> 1594 25<235.138 363.258 401 578> 1719 25<235.859 364.141> 1817 12<267.764 330.175> 2012 13<265.501 332.43> 2094 25<235.859 364.141>
LayerCount: 2
Fore
SplineSet
1817 299 m 0xf3fcf0
 1817 356 1864 403 1921 403 c 0
 1978 403 2025 356 2025 299 c 0
 2025 242 1978 195 1921 195 c 0
 1864 195 1817 242 1817 299 c 0xf3fcf0
1829 299 m 0
 1829 248 1870 207 1921 207 c 0
 1972 207 2012 248 2012 299 c 0
 2012 350 1972 390 1921 390 c 0
 1870 390 1829 350 1829 299 c 0
1719 300 m 0
 1719 410 1809 500 1919 500 c 0
 2029 500 2119 410 2119 300 c 0
 2119 190 2029 100 1919 100 c 0
 1809 100 1719 190 1719 300 c 0
1744 300 m 0
 1744 203 1822 125 1919 125 c 0
 2016 125 2094 203 2094 300 c 0
 2094 397 2016 475 1919 475 c 0
 1822 475 1744 397 1744 300 c 0
1419 475 m 0
 1322 475 1244 397 1244 300 c 0
 1244 203 1322 125 1419 125 c 0
 1516 125 1594 202 1594 299 c 2
 1594 310 l 2xf3fdf0
 1589 402 1513 475 1419 475 c 0
1612 579 m 1xfbfef0
 1619 311 l 2
 1619 307 1619 304 1619 300 c 0
 1619 299 l 2xfbfdf0
 1619 189 1529 100 1419 100 c 0
 1309 100 1219 190 1219 300 c 0
 1219 410 1309 500 1419 500 c 0
 1492 500 1557 460 1592 401 c 1
 1587 578 l 1
 1612 579 l 1xfbfef0
919 475 m 0
 822 475 744 397 744 300 c 0
 744 203 822 125 919 125 c 0
 1016 125 1094 203 1094 300 c 0
 1094 397 1016 475 919 475 c 0
919 500 m 0
 1029 500 1119 410 1119 300 c 0
 1119 190 1029 100 919 100 c 0
 809 100 719 190 719 300 c 0
 719 321 722 341 728 360 c 1
 726 405 699 446 657 466 c 0
 640 474 622 478 604 478 c 0
 570 478 536 464 512 438 c 1
 500 450 l 1
 527 479 566 495 604 495 c 0
 624 495 645 490 664 481 c 0
 703 463 730 429 741 389 c 1
 774 455 841 500 919 500 c 0
250 475 m 0
 153 475 75 397 75 300 c 0
 75 203 153 125 250 125 c 0
 347 125 425 203 425 300 c 0
 425 397 347 475 250 475 c 0
250 500 m 0
 360 500 450 410 450 300 c 0
 450 229 413 168 358 132 c 1
 358 -63 l 1
 333 -63 l 1
 333 118 l 1
 313 109 292 103 270 101 c 1
 270 -89 l 1
 245 -89 l 1
 245 100 l 1
 216 101 189 108 164 120 c 1
 164 -57 l 1
 139 -57 l 1
 139 134 l 1
 86 170 50 231 50 300 c 0
 50 410 140 500 250 500 c 0
EndSplineSet
Validated: 1
EndChar

StartChar: uE180C
Encoding: 923660 923660 122
Width: 1163
Flags: W
HStem: 11 25<516.106 567.496> 100 25<185.859 314.141 848.688 908 933 974.146> 475 25<185.859 313.748 848.859 977.141> 559 20G<417 442.522> 559 20G<417 442.522>
VStem: 50 25<235.859 364.141> 417 25<401 578> 425 25<235.138 300 300.187 310 401 545.5> 480 25<46.9387 161.504> 538 24<154.097 191.875> 713 25<235.475 364.141> 802 25<-57 119> 908 25<-90 100> 1088 25<235.376 364.141>
LayerCount: 2
Fore
SplineSet
913 475 m 0xe4fc
 816 475 738 397 738 300 c 0
 738 203 816 125 913 125 c 0
 1010 125 1088 203 1088 300 c 0
 1088 397 1010 475 913 475 c 0xe4fc
913 500 m 0
 1023 500 1113 410 1113 300 c 0
 1113 196 1034 111 933 101 c 1
 933 -90 l 1
 908 -90 l 1
 908 100 l 1
 879 101 852 107 827 119 c 1
 827 -57 l 1
 802 -57 l 1
 802 134 l 1
 749 170 713 231 713 300 c 0
 713 410 803 500 913 500 c 0
613 66 m 0
 613 56 574 11 539 11 c 0
 522 11 480 22 480 92 c 0
 480 128 493 177 509 211 c 1
 470 201 l 2
 463 199 457 203 455 210 c 0
 453 217 457 223 464 225 c 2
 542 246 l 1
 562 169 l 2
 564 162 560 156 553 154 c 0
 546 152 540 156 538 163 c 2
 530 196 l 1
 505 135 505 111 505 92 c 0
 505 55 519 36 539 36 c 0
 554 36 573 48 591 73 c 0
 593 76 597 79 601 79 c 0
 604 79 613 75 613 66 c 0
250 475 m 0
 153 475 75 397 75 300 c 0
 75 203 153 125 250 125 c 0
 347 125 425 202 425 299 c 1xe5fc
 424 310 l 1
 419 402 344 475 250 475 c 0
442 579 m 1xf6fc
 449 311 l 2
 449 307 450 304 450 300 c 2
 450 299 l 2xf5fc
 450 189 360 100 250 100 c 0
 140 100 50 190 50 300 c 0
 50 410 140 500 250 500 c 0
 323 500 387 460 422 401 c 1
 417 578 l 1
 442 579 l 1xf6fc
EndSplineSet
Validated: 1
EndChar

StartChar: uE180D
Encoding: 923661 923661 123
Width: 1376
Flags: W
HStem: 11 25<524.327 567.303> 100 25<185.859 314.141 1062.59 1190.14> 190 25<713 945> 475 25<185.859 313.748 1061.5 1190.14> 559 20G<417 442.522> 579 98G<417 442.522 919 944.33> 677 20G<919 944.33>
VStem: 50 25<235.859 364.141> 417 25<401 578> 425 25<235.138 300 300.187 310 401 545.5> 480 25<46.4355 162.312> 538 24<154.097 191.875> 919 25<394 696> 926 25<235.688 364.312 394 696> 1301 25<235.859 364.141>
LayerCount: 2
Fore
SplineSet
1126 475 m 0xf136
 1029 475 951 397 951 300 c 0
 951 203 1029 125 1126 125 c 0
 1223 125 1301 203 1301 300 c 0
 1301 397 1223 475 1126 475 c 0xf136
944 697 m 1xf33a
 949 394 l 1
 983 457 1050 500 1126 500 c 0
 1236 500 1326 410 1326 300 c 0
 1326 190 1236 100 1126 100 c 0
 1056 100 995 136 959 190 c 1
 713 190 l 1
 713 215 l 1
 945 215 l 1
 933 240 926 268 926 298 c 2xf336
 919 696 l 1
 944 697 l 1xf33a
542 246 m 1
 562 169 l 2
 564 162 560 156 553 154 c 0
 546 152 540 156 538 163 c 2
 530 196 l 1
 521 174 511 147 507 121 c 0
 505 111 505 101 505 92 c 0
 505 84 506 77 507 71 c 0
 510 57 515 46 524 40 c 0
 531 35 537 35 544 36 c 0
 551 37 559 41 566 47 c 0
 580 58 591 73 591 73 c 2
 593 76 597 79 601 79 c 0
 604 79 606 77 608 76 c 0
 611 74 613 70 613 66 c 0
 613 63 612 61 611 59 c 2
 611 59 599 42 581 28 c 0
 572 21 561 15 549 12 c 0
 546 11 543 11 539 11 c 0
 529 11 519 13 510 20 c 0
 495 31 486 48 482 66 c 0
 480 74 480 83 480 92 c 0
 480 103 481 114 483 125 c 0
 488 156 498 187 509 211 c 1
 470 201 l 2
 463 199 457 203 455 210 c 0
 453 217 457 223 464 225 c 2
 542 246 l 1
250 475 m 0
 153 475 75 397 75 300 c 0
 75 203 153 125 250 125 c 0
 347 125 425 202 425 299 c 2xf172
 424 310 l 2
 419 402 344 475 250 475 c 0
442 579 m 1xf9b2
 449 311 l 2
 449 307 450 304 450 300 c 0
 450 299 l 2xf972
 450 189 360 100 250 100 c 0
 140 100 50 190 50 300 c 0
 50 410 140 500 250 500 c 0
 323 500 387 460 422 401 c 1
 417 578 l 1
 442 579 l 1xf9b2
EndSplineSet
Validated: 1
EndChar

StartChar: uE180E
Encoding: 923662 923662 124
Width: 728
Flags: W
HStem: 100 25<354.859 483.141> 402 12<534 565.82> 452 12<534 571> 475 25<59.9991 147.45 355.499 483.116> 552 24<217.25 292.949 546.051 621.75> 659 25<340.382 497.734> 673 20G<183 191 648 655>
VStem: 174 25<620.111 692.95> 219 25<235.859 361.711> 521 13<414 445.831> 571 13<414 452> 594 25<235.859 365.789> 640 25<618.462 692.95>
LayerCount: 2
Fore
SplineSet
188 693 m 0xfbf8
 194 692 199 687 199 681 c 0
 199 680 l 2
 190 603 l 1
 228 629 319 684 419 684 c 0xfdf8
 519 684 610 629 648 603 c 1
 640 680 l 0
 640 681 l 0
 640 687 645 692 651 693 c 0
 652 693 l 0xfbf8
 658 693 664 688 665 682 c 2
 678 564 l 1
 560 552 l 0
 559 552 l 0
 553 552 547 557 546 563 c 0
 546 564 l 0
 546 570 551 575 557 576 c 2
 631 584 l 1
 593 609 507 659 419 659 c 0xfdf8
 331 659 246 609 208 584 c 1
 282 576 l 1
 288 575 293 570 293 564 c 0
 293 563 l 0
 292 557 286 552 280 552 c 0
 279 552 l 2
 161 564 l 1
 174 682 l 1
 175 688 180 693 186 693 c 0
 188 693 l 0xfbf8
419 500 m 0
 461 500 501 486 533 464 c 1
 584 464 l 1
 584 414 l 1
 606 382 619 342 619 300 c 0
 619 190 529 100 419 100 c 0
 309 100 219 190 219 300 c 0
 219 321 222 341 228 360 c 0
 226 405 199 446 157 466 c 0
 140 474 122 478 104 478 c 0
 70 478 36 464 12 438 c 1
 0 450 l 1
 27 479 66 495 104 495 c 0
 124 495 145 490 164 481 c 0
 203 463 230 429 241 389 c 1
 274 455 341 500 419 500 c 0
419 475 m 0
 322 475 244 397 244 300 c 0
 244 203 322 125 419 125 c 0
 516 125 594 203 594 300 c 0
 594 338 583 373 562 402 c 1
 521 402 l 1
 521 442 l 1
 492 463 457 475 419 475 c 0
534 452 m 1
 534 414 l 1
 571 414 l 1
 571 452 l 1
 534 452 l 1
EndSplineSet
Validated: 1
EndChar

StartChar: uE1810
Encoding: 923664 923664 125
Width: 617
Flags: W
HStem: 100 25<243.859 372.141> 195 12<278.764 341.175> 390 13<276.501 343.43> 475 25<243.859 372.141> 500 25<106.25 181.949 435.051 510.75> 607 25<227.231 388.885> 622 20G<72 80 537 544>
VStem: 63 25<568.111 641.949> 108 25<235.859 364.141> 206 12<267.764 330.175> 401 13<265.501 332.43> 483 25<235.859 364.141> 529 25<567.462 641.949>
LayerCount: 2
Fore
SplineSet
77 642 m 0xebf8
 83 641 88 635 88 629 c 0
 88 628 l 2
 79 551 l 1
 117 577 208 632 308 632 c 4xe5f8
 408 632 499 577 537 551 c 1
 529 628 l 0
 529 629 l 0
 529 635 534 641 540 642 c 0
 541 642 l 0xe3f8
 547 642 553 637 554 631 c 2
 567 513 l 1
 449 500 l 0
 448 500 l 0
 442 500 436 505 435 511 c 0
 435 512 l 0
 435 518 440 524 446 525 c 2
 520 533 l 1
 482 558 396 607 308 607 c 0xedf8
 220 607 135 558 97 533 c 1
 171 525 l 2
 177 524 182 518 182 512 c 0
 182 511 l 0
 181 505 175 500 169 500 c 0
 168 500 l 2
 50 513 l 1
 63 631 l 2
 64 637 69 642 75 642 c 0
 77 642 l 0xebf8
206 299 m 0
 206 356 253 403 310 403 c 0
 367 403 414 356 414 299 c 0
 414 242 367 195 310 195 c 0
 253 195 206 242 206 299 c 0
218 299 m 0
 218 248 259 207 310 207 c 0
 361 207 401 248 401 299 c 0
 401 350 361 390 310 390 c 0
 259 390 218 350 218 299 c 0
108 300 m 0
 108 410 198 500 308 500 c 0xf1f8
 418 500 508 410 508 300 c 0
 508 190 418 100 308 100 c 0
 198 100 108 190 108 300 c 0
133 300 m 0
 133 203 211 125 308 125 c 0
 405 125 483 203 483 300 c 0
 483 397 405 475 308 475 c 0
 211 475 133 397 133 300 c 0
EndSplineSet
Validated: 1
EndChar

StartChar: uE1811
Encoding: 923665 923665 126
Width: 506
Flags: W
HStem: 100 25<185.688 245 270 311.146> 475 25<185.859 314.141>
VStem: 50 25<235.475 364.141> 139 25<-57 120> 245 25<-89 100> 403 34<559 680> 425 25<235.376 364.141>
LayerCount: 2
Fore
SplineSet
250 500 m 0xfa
 360 500 450 410 450 300 c 0
 450 196 371 111 270 101 c 1
 270 -89 l 1
 245 -89 l 1
 245 100 l 1
 216 101 189 108 164 120 c 1
 164 -57 l 1
 139 -57 l 1
 139 134 l 1
 86 170 50 231 50 300 c 0
 50 410 140 500 250 500 c 0xfa
250 475 m 0
 153 475 75 397 75 300 c 0
 75 203 153 125 250 125 c 0
 347 125 425 203 425 300 c 0
 425 397 347 475 250 475 c 0
420 742 m 1
 456 680 l 1
 437 680 l 1
 437 559 l 1
 456 559 l 1
 420 496 l 1
 384 559 l 1
 403 559 l 1
 403 680 l 1xfc
 384 680 l 1
 420 742 l 1
EndSplineSet
Validated: 1
EndChar

StartChar: uE1812
Encoding: 923666 923666 127
Width: 525
Flags: W
HStem: 140 53<192.349 333.415> 437 25<198.402 325.706> 630 20G<50 75 450 475>
VStem: 50 25<586.897 650> 112 23<269.33 345.825> 250 25<-100 88.9854> 390 22<270.745 346.531> 450 25<586.897 650>
LayerCount: 2
Fore
SplineSet
356 407 m 1
 391 380 412 338 412 290 c 0
 412 207 345 140 262 140 c 0
 179 140 112 207 112 290 c 0
 112 337 135 379 169 406 c 1
 148 383 135 353 135 320 c 0
 135 250 192 193 262 193 c 0
 332 193 390 250 390 320 c 0
 390 354 377 384 356 407 c 1
475 650 m 1
 475 533 379 437 262 437 c 0
 145 437 50 533 50 650 c 1
 75 650 l 1
 75 547 159 462 262 462 c 0
 365 462 450 547 450 650 c 1
 475 650 l 1
263 89 m 0
 270 89 275 84 275 77 c 2
 275 -100 l 1
 329 -47 l 2
 334 -42 341 -42 346 -47 c 0
 351 -52 351 -59 346 -64 c 2
 263 -148 l 1
 179 -64 l 2
 174 -59 174 -52 179 -47 c 0
 181 -45 185 -43 188 -43 c 0
 191 -43 194 -45 196 -47 c 2
 250 -100 l 1
 250 77 l 2
 250 84 256 89 263 89 c 0
EndSplineSet
Validated: 1
EndChar

StartChar: uE181F
Encoding: 923679 923679 128
Width: 1327
Flags: W
HStem: -133 25<129 437 856 1164> -25 25<185.859 313.406 991.859 1120.14> 65 25<431 662> 350 25<185.859 314.496 1033.98 1081.18> 522 30G<431.67 457 855 886.362 1003 1028.61 1119.58 1148 1234.33 1266> 622 25<440.051 513 1136.05 1208.5> 638 22<61.0519 66 520.375 525 757.007 761> 729 25<234.731 394.769 929.731 1089.77>
VStem: 50 25<110.859 239.141> 61 21<638.277 641> 425 25<110.688 239.312 269 571> 432 25<269 571> 534 25<691.111 763.95> 757 20<638.172 641> 856 25<110.859 218.211> 1009 25<374 570> 1231 25<110.859 239.728 699.818 763.871>
LayerCount: 2
Fore
SplineSet
1240 764 m 2xfb0f80
 1242 764 l 2
 1248 764 1253 759 1254 753 c 2
 1267 636 l 1
 1150 622 l 1
 1148 622 l 2
 1142 622 1137 627 1136 633 c 2
 1136 635 l 2
 1136 641 1141 646 1147 647 c 2xfd0f80
 1220 655 l 1
 1182 680 1097 729 1009 729 c 0
 890 729 777 641 777 641 c 2
 775 639 772 638 769 638 c 0
 765 638 761 640 759 643 c 0
 757 645 757 647 757 650 c 0
 757 654 758 658 761 660 c 2
 761 660 878 754 1009 754 c 0
 1109 754 1200 700 1238 674 c 1
 1229 751 l 1
 1229 752 l 2
 1229 758 1234 763 1240 764 c 2xfb0f80
545 764 m 2
 546 764 l 2
 552 764 558 759 559 753 c 2
 572 636 l 1
 454 622 l 1
 453 622 l 2
 447 622 441 627 440 633 c 2
 440 635 l 2
 440 641 445 646 451 647 c 2xfd4f80
 525 655 l 1
 487 680 402 729 314 729 c 0
 195 729 82 641 82 641 c 2
 80 639 77 638 74 638 c 0
 70 638 66 640 64 643 c 0
 62 645 61 647 61 650 c 0
 61 654 63 658 66 660 c 2xfb4f80
 66 660 183 754 314 754 c 0
 414 754 505 700 543 674 c 1
 534 751 l 1
 534 752 l 2
 534 758 539 763 545 764 c 2
856 -108 m 1
 1164 -108 l 1
 1164 -133 l 1
 856 -133 l 1
 856 -108 l 1
1056 350 m 0
 959 350 881 272 881 175 c 0
 881 78 959 0 1056 0 c 0
 1153 0 1231 78 1231 175 c 0
 1231 272 1153 350 1056 350 c 0
129 -108 m 1
 437 -108 l 1
 437 -133 l 1
 129 -133 l 1
 129 -108 l 1
250 350 m 0
 153 350 75 272 75 175 c 0
 75 78 153 0 250 0 c 0
 347 0 425 78 425 175 c 0xf9af80
 425 272 347 350 250 350 c 0
432 572 m 1xf99f80
 457 571 l 1xf99f80
 450 173 l 2xf92f80
 450 143 443 115 431 90 c 1
 662 90 l 1
 662 65 l 1
 417 65 l 1
 381 11 320 -25 250 -25 c 0
 140 -25 50 65 50 175 c 0
 50 285 140 375 250 375 c 0
 326 375 393 332 427 269 c 1
 432 572 l 1xf99f80
1009 369 m 1
 1003 570 l 1
 1028 571 l 1
 1034 374 l 1
 1041 375 1048 375 1056 375 c 0
 1064 375 1072 375 1080 374 c 1
 1124 573 l 1
 1148 568 l 1
 1105 369 l 1
 1127 363 1147 354 1165 342 c 1
 1243 522 l 1
 1266 512 l 1
 1186 327 l 1
 1229 290 1256 236 1256 175 c 0
 1256 65 1166 -25 1056 -25 c 0
 946 -25 856 65 856 175 c 0
 856 188 857 201 860 214 c 1
 762 289 l 1
 777 309 l 1
 867 240 l 1
 879 276 902 308 931 331 c 1
 855 512 l 1
 878 522 l 1
 952 345 l 1
 969 356 989 364 1009 369 c 1
EndSplineSet
Validated: 1
EndChar

StartChar: uE1820
Encoding: 923680 923680 129
Width: 1305
Flags: W
HStem: 100 25<185.859 314.141 990.859 1119.14> 287 25<575 715> 475 25<185.859 314.064 575 958 990.688 1117.19> 562 94G<572.5 580.5 650.5 657.5 797.5 805.5 875.5 882.5>
VStem: 50 25<235.859 364.141> 425 25<236.031 364.312 397 751> 550 25<312 475> 642 25<541.015 713> 855 25<235.859 364.064> 867 25<541.015 713> 1230 25<235.859 363.849>
LayerCount: 2
Fore
SplineSet
879 541 m 0xff60
 872 541 867 546 867 553 c 2
 867 713 l 1
 813 659 l 2
 811 657 807 656 804 656 c 0
 791 656 788 670 795 677 c 2
 879 761 l 1
 963 677 l 2
 975 665 957 647 945 659 c 2
 892 713 l 1
 892 553 l 2
 892 546 886 541 879 541 c 0xff60
654 541 m 0
 647 541 642 546 642 553 c 2
 642 713 l 1
 588 659 l 2
 586 657 582 656 579 656 c 0
 566 656 563 670 570 677 c 2
 654 761 l 1
 738 677 l 2
 750 665 732 647 720 659 c 2
 667 713 l 1
 667 553 l 2
 667 546 661 541 654 541 c 0
250 475 m 4
 153 475 75 397 75 300 c 0
 75 203 153 125 250 125 c 0
 347 125 425 203 425 300 c 4
 425 397 347 475 250 475 c 4
425 751 m 1
 450 751 l 1
 450 300 l 2
 450 190 360 100 250 100 c 0
 140 100 50 190 50 300 c 0
 50 410 140 500 250 500 c 0
 325 500 391 459 425 397 c 1
 425 751 l 1
550 287 m 1
 550 500 l 1
 1059 500 l 1
 1167 498 1255 409 1255 300 c 0
 1255 190 1165 100 1055 100 c 0
 945 100 855 190 855 300 c 0xffa0
 855 375 897 441 958 475 c 1
 575 475 l 1
 575 312 l 1
 715 312 l 1
 715 287 l 1
 550 287 l 1
1055 475 m 0
 958 475 880 397 880 300 c 0
 880 203 958 125 1055 125 c 0
 1152 125 1230 203 1230 300 c 0
 1230 397 1152 475 1055 475 c 0
EndSplineSet
Validated: 1
EndChar

StartChar: uE181C
Encoding: 923676 923676 130
Width: 1518
Flags: HMW
LayerCount: 2
Fore
SplineSet
697.3671875 124.424804688 m 1
 697.3671875 317.424804688 l 1
 722.3671875 317.424804688 l 1
 722.3671875 124.424804688 l 1
 697.3671875 124.424804688 l 1
583.3671875 124.424804688 m 1
 583.3671875 317.424804688 l 1
 608.3671875 317.424804688 l 1
 608.3671875 124.424804688 l 1
 583.3671875 124.424804688 l 1
50 233.424804688 m 1
 500 233.424804688 l 1
 500 208.424804688 l 1
 50 208.424804688 l 1
 50 233.424804688 l 1
1467.98925781 658.7578125 m 1
 1405.16308594 622.4375 l 1
 1405.16308594 641.9453125 l 1
 1284.19628906 641.9453125 l 1
 1284.19628906 622.4375 l 1
 1221.36035156 658.7578125 l 1
 1284.19628906 695.068359375 l 1
 1284.19628906 675.56640625 l 1
 1405.16308594 675.56640625 l 1
 1405.16308594 695.068359375 l 1
 1467.98925781 658.7578125 l 1
1036.03222656 696.8359375 m 1
 1041.32519531 393.646484375 l 1
 1074.9609375 456.86328125 1141.50488281 500.00390625 1217.99121094 500.00390625 c 0
 1328.29980469 500.00390625 1417.98925781 410.314453125 1417.98925781 300.005859375 c 0
 1417.98925781 189.697265625 1328.29980469 100 1217.99121094 100 c 0
 1148.27636719 100 1086.828125 135.8515625 1051.01855469 190.06640625 c 1
 805.735351562 190.06640625 l 1
 805.735351562 215.06640625 l 1
 1036.96484375 215.06640625 l 1
 1025.01855469 240.432617188 1018.25097656 268.690429688 1018.02734375 298.4921875 c 1
 1018.00878906 298.4921875 l 1
 1011.06347656 696.400390625 l 1
 1036.03222656 696.8359375 l 1
1217.99121094 475 m 0
 1121.19335938 475 1042.98925781 396.803710938 1042.98925781 300.005859375 c 0
 1042.98925781 203.208007812 1121.19335938 125.00390625 1217.99121094 125.00390625 c 0
 1314.7890625 125.00390625 1392.98730469 203.208007812 1392.98730469 300.005859375 c 0
 1392.98730469 396.803710938 1314.7890625 475 1217.99121094 475 c 0
EndSplineSet
Validated: 1
EndChar

StartChar: uE181D
Encoding: 923677 923677 131
Width: 900
Flags: W
HStem: 0 25<175 625> 100 25<285.859 414.211> 449 50<625.198 674.802 721.198 770.802> 475 25<285.859 413.207> 575 25<75 850>
VStem: 50 25<-200 575> 150 25<235.859 364.141> 524 26<236.031 284 308.368 367.082> 625 50<449.198 498.802> 721 50<449.198 498.802>
LayerCount: 2
Fore
SplineSet
721 474 m 0xefc0
 721 488 732 499 746 499 c 0
 760 499 771 488 771 474 c 0
 771 460 760 449 746 449 c 0
 732 449 721 460 721 474 c 0xefc0
625 474 m 0
 625 488 636 499 650 499 c 0
 664 499 675 488 675 474 c 0
 675 460 664 449 650 449 c 0
 636 449 625 460 625 474 c 0
175 25 m 1
 625 25 l 1
 625 0 l 1
 175 0 l 1
 175 25 l 1
350 475 m 0xdfc0
 253 475 175 397 175 300 c 0
 175 203 253 125 350 125 c 0
 441 125 516 195 524 284 c 1
 280 218 l 1
 274 242 l 1
 525 310 l 1
 520 402 444 475 350 475 c 0xdfc0
350 500 m 0
 460 500 550 410 550 300 c 0
 550 190 460 100 350 100 c 0
 240 100 150 190 150 300 c 0
 150 410 240 500 350 500 c 0
75 575 m 1
 75 -200 l 1
 50 -200 l 1
 50 575 l 1
 50 600 l 1
 75 600 l 1
 850 600 l 1
 850 575 l 1
 75 575 l 1
EndSplineSet
Validated: 1
EndChar

StartChar: uE181E
Encoding: 923678 923678 132
Width: 1081
Flags: W
HStem: -98 25<50 756> 167 25<691.859 820.141> 355 25<432.448 518.983> 542 25<691.859 820.064>
VStem: 556 25<302.859 431.141> 866 25<-200 17> 931 25<303.031 431.312 464 779> 1006 25<-200 17>
LayerCount: 2
Fore
SplineSet
931 779 m 1
 956 779 l 1
 956 367 l 2
 956 257 866 167 756 167 c 0
 646 167 556 257 556 367 c 0
 556 477 646 567 756 567 c 0
 831 567 897 526 931 464 c 1
 931 779 l 1
756 542 m 0
 659 542 581 464 581 367 c 0
 581 270 659 192 756 192 c 0
 853 192 931 270 931 367 c 0
 931 464 853 542 756 542 c 0
757 18 m 1
 749 155 l 1
 774 156 l 1
 782 19 l 1
 757 18 l 1
866 -200 m 1
 866 17 l 1
 891 17 l 1
 891 -200 l 1
 866 -200 l 1
1006 -200 m 1
 1006 17 l 1
 1031 17 l 1
 1031 -200 l 1
 1006 -200 l 1
50 -73 m 1
 756 -73 l 1
 756 -98 l 1
 50 -98 l 1
 50 -73 l 1
506 380 m 0
 513 380 519 374 519 367 c 0
 519 360 513 355 506 355 c 0
 459 355 363 329 282 271 c 0
 206 217 159 137 151 25 c 1
 204 78 l 2
 209 83 216 83 221 78 c 0
 226 73 226 65 221 60 c 2
 138 -24 l 1
 54 60 l 2
 49 65 49 73 54 78 c 0
 59 83 66 83 71 78 c 2
 126 23 l 1
 134 145 187 234 268 291 c 0
 354 352 450 380 506 380 c 0
EndSplineSet
Validated: 1
EndChar

StartChar: uE1821
Encoding: 923681 923681 133
Width: 900
Flags: W
HStem: -100 25<585.859 714.141> 275 25<585.859 713.866> 300 25<186.764 313.554> 365 25<585.51 638.88> 675 25<185.765 313.236> 705 25<585.51 638.88>
VStem: 50 25<436.446 561.418> 425 25<436.764 563.554> 450 25<35.8593 164.141> 515 25<462.958 631.767> 685 25<559 633.353> 825 25<35.8593 163.601>
LayerCount: 2
Fore
SplineSet
612 705 m 0x9e70
 595 705 578 690 564 662 c 0
 550 634 540 592 540 547 c 0
 540 502 550 461 564 433 c 0
 578 405 595 390 612 390 c 0
 629 390 647 405 661 433 c 0
 673 456 681 487 684 522 c 1
 631 470 l 2
 629 468 625 466 622 466 c 0
 619 466 616 468 614 470 c 0
 612 472 610 476 610 479 c 0
 610 482 612 485 614 487 c 2
 685 559 l 1
 684 600 674 636 661 662 c 0
 647 690 629 705 612 705 c 0x9e70
612 730 m 0
 642 730 667 706 684 673 c 0
 699 643 709 603 710 559 c 1
 781 487 l 2
 783 485 785 482 785 479 c 0
 785 476 783 472 781 470 c 0
 779 468 775 466 772 466 c 0
 769 466 766 468 764 470 c 2
 709 524 l 1
 706 485 698 450 684 422 c 0
 667 389 642 365 612 365 c 0
 582 365 558 389 541 422 c 0
 524 455 515 498 515 547 c 0
 515 596 524 640 541 673 c 0
 558 706 582 730 612 730 c 0
198 693 m 0
 215 698 233 700 250 700 c 0
 338 700 419 641 443 552 c 0
 448 535 450 517 450 500 c 0
 450 412 391 331 302 307 c 0
 285 302 267 300 250 300 c 0xbf70
 162 300 81 359 57 448 c 0
 52 465 50 483 50 500 c 0
 50 588 109 669 198 693 c 0
650 275 m 0xdef0
 553 275 475 197 475 100 c 0
 475 3 553 -75 650 -75 c 0
 747 -75 825 3 825 100 c 0
 825 146 807 188 778 219 c 1
 643 183 l 1
 636 207 l 1
 756 239 l 1
 727 261 690 275 650 275 c 0xdef0
650 300 m 0
 760 300 850 210 850 100 c 0
 850 -10 760 -100 650 -100 c 0
 540 -100 450 -10 450 100 c 0
 450 210 540 300 650 300 c 0
93 576 m 1
 82 553 75 527 75 500 c 0
 75 485 77 470 81 455 c 0
 102 377 173 325 250 325 c 0
 265 325 280 327 295 331 c 0
 373 352 425 423 425 500 c 0xbf70
 425 515 423 530 419 545 c 0
 398 623 327 675 250 675 c 0
 235 675 220 673 205 669 c 0
 163 658 128 632 105 598 c 1
 256 511 l 1
 244 489 l 1
 93 576 l 1
EndSplineSet
Validated: 1
EndChar

StartChar: uE1813
Encoding: 923667 923667 134
Width: 2042
Flags: W
HStem: 100 25<404.859 533.141 1728.59 1856.14> 190 25<1380 1611> 236 22<769.172 774> 328 25<943.875 1098.78> 475 25<109.999 197.45 405.499 533.141 1727.61 1856.14> 677 20G<1585 1610.4> 677 20G<1585 1610.4>
VStem: 269 25<235.859 361.711> 644 25<235.859 364.141> 769 21<236.277 239> 1242 25<288.462 362.949> 1585 25<394 696> 1592 25<235.688 364.312 394 696> 1967 25<235.859 364.141>
LayerCount: 2
Fore
SplineSet
1792 475 m 0xf9ec
 1695 475 1617 397 1617 300 c 0
 1617 203 1695 125 1792 125 c 0
 1889 125 1967 203 1967 300 c 0
 1967 397 1889 475 1792 475 c 0xf9ec
1610 697 m 1xfdf4
 1616 394 l 1
 1650 457 1716 500 1792 500 c 0
 1902 500 1992 410 1992 300 c 0
 1992 190 1902 100 1792 100 c 0
 1722 100 1661 136 1625 190 c 1
 1380 190 l 1
 1380 215 l 1
 1611 215 l 1
 1599 240 1592 268 1592 298 c 2xfdec
 1585 696 l 1
 1610 697 l 1xfdf4
1253 363 m 0
 1254 363 l 0
 1260 363 1266 358 1267 352 c 2
 1280 234 l 1
 1162 221 l 0
 1161 220 l 0
 1155 220 1149 226 1148 232 c 0
 1148 233 l 0
 1148 239 1153 244 1159 245 c 2
 1233 254 l 1
 1195 279 1109 328 1021 328 c 0
 902 328 790 239 790 239 c 2
 788 237 785 236 782 236 c 0
 778 236 774 238 772 241 c 0
 770 243 769 246 769 249 c 0
 769 253 771 256 774 258 c 2
 774 258 890 353 1021 353 c 1
 1022 353 l 2
 1122 353 1212 298 1250 272 c 1
 1242 349 l 0
 1242 350 l 0
 1242 356 1247 362 1253 363 c 0
469 475 m 0
 372 475 294 397 294 300 c 0
 294 203 372 125 469 125 c 0
 566 125 644 203 644 300 c 0
 644 397 566 475 469 475 c 0
469 500 m 0
 579 500 669 410 669 300 c 0
 669 190 579 100 469 100 c 0
 359 100 269 190 269 300 c 0
 269 321 272 341 278 360 c 1
 276 405 249 446 207 466 c 0
 190 474 172 478 154 478 c 0
 120 478 86 464 62 438 c 1
 50 450 l 1
 77 479 116 495 154 495 c 0
 174 495 195 490 214 481 c 0
 253 463 280 429 291 389 c 1
 324 455 391 500 469 500 c 0
EndSplineSet
Validated: 1
EndChar

StartChar: uE1814
Encoding: 923668 923668 135
Width: 1450
Flags: W
HStem: 100 25<854.859 983.141> 110 25<1301.05 1349> 199 25<1202.78 1272.28> 381 25<199.294 326.598> 475 25<559.999 647.45 855.499 983.141>
VStem: 50 25<194 257.011> 450 25<194 257.011> 719 25<235.859 361.711> 1094 25<235.859 364.141> 1191 23<102.096 106> 1371 29<144 194.755>
LayerCount: 2
Fore
SplineSet
919 500 m 0xbfe0
 1029 500 1119 410 1119 300 c 0
 1119 190 1029 100 919 100 c 0
 809 100 719 190 719 300 c 0
 719 321 722 341 728 360 c 0
 726 405 699 446 657 466 c 0
 640 474 622 478 604 478 c 0
 570 478 536 464 512 438 c 1
 500 450 l 1
 527 479 566 495 604 495 c 0
 624 495 645 490 664 481 c 0
 703 463 730 429 741 389 c 1
 774 455 841 500 919 500 c 0xbfe0
919 475 m 0
 822 475 744 397 744 300 c 0
 744 203 822 125 919 125 c 0
 1016 125 1094 203 1094 300 c 0
 1094 397 1016 475 919 475 c 0
475 194 m 1
 450 194 l 1
 450 297 366 381 263 381 c 0
 160 381 75 297 75 194 c 1
 50 194 l 1
 50 311 146 406 263 406 c 0
 380 406 475 311 475 194 c 1
1390 100 m 1
 1312 110 l 2
 1305 111 1300 117 1301 124 c 0
 1302 131 1308 136 1315 135 c 2x7fe0
 1349 131 l 1
 1332 148 1310 166 1287 179 c 0
 1271 188 1255 195 1241 198 c 0
 1236 199 1232 199 1228 199 c 0
 1220 199 1212 197 1206 193 c 0
 1199 188 1196 183 1195 176 c 0
 1194 169 1195 161 1197 152 c 0
 1202 135 1212 119 1212 119 c 2
 1213 117 1214 116 1214 113 c 0
 1214 109 1212 104 1209 102 c 0
 1207 101 1205 100 1202 100 c 0
 1198 100 1193 103 1191 106 c 2
 1191 106 1179 123 1173 145 c 0
 1171 153 1169 161 1169 170 c 0
 1169 174 1169 177 1170 181 c 0
 1172 194 1180 206 1193 214 c 0
 1204 221 1216 224 1228 224 c 0
 1234 224 1239 224 1245 223 c 0
 1263 220 1282 211 1300 201 c 0
 1327 185 1352 164 1371 144 c 1
 1376 184 l 2
 1377 191 1383 196 1390 195 c 0
 1397 194 1401 188 1400 181 c 2
 1390 100 l 1
EndSplineSet
Validated: 1
EndChar

StartChar: uE1815
Encoding: 923669 923669 136
Width: 1349
Flags: W
HStem: 100 25<860.939 989.935> 208 25<50 500> 475 25<861.728 989.136> 577 21G<1081 1116 1236 1271> 596 34<1116 1236> 629 20G<1081 1116 1236 1271>
VStem: 583 25<124 317> 697 25<124 317> 1101 25<235.666 364.94>
LayerCount: 2
Fore
SplineSet
1126 300 m 0xe380
 1126 189 1036 100 926 100 c 0
 872 100 823 121 787 156 c 1
 804 174 l 1
 835 144 879 125 926 125 c 0
 1022 125 1101 203 1101 300 c 0
 1101 399 1020 475 926 475 c 0
 870 475 819 449 787 407 c 1
 767 422 l 1
 804 470 861 500 926 500 c 0
 1034 500 1126 412 1126 300 c 0xe380
697 124 m 1
 697 317 l 1
 722 317 l 1
 722 124 l 1
 697 124 l 1
583 124 m 1
 583 317 l 1
 608 317 l 1
 608 124 l 1
 583 124 l 1
50 233 m 1
 500 233 l 1
 500 208 l 1
 50 208 l 1
 50 233 l 1
1299 613 m 1
 1236 577 l 1xf780
 1236 596 l 1
 1116 596 l 1xeb80
 1116 577 l 1
 1053 613 l 1
 1116 649 l 1xf780
 1116 630 l 1
 1236 630 l 1xeb80
 1236 649 l 1xe780
 1299 613 l 1
EndSplineSet
Validated: 1
EndChar

StartChar: uE1822
Encoding: 923682 923682 137
Width: 729
Flags: W
HStem: 27 25<405.563 533.969> 402 25<464 532.555> 612 25<406.256 525.867> 638 20G<215 220.5 247 282.056 388 418.341 595.639 625>
VStem: 50 25<464.574 521.243> 210 25<599.757 657.094> 269 25<162.031 261.297> 279 25<740.241 800> 454 25<-152 4.98544> 629 25<740.241 800> 644 25<163.563 290.055>
LayerCount: 2
Fore
SplineSet
75 498 m 0xfc80
 75 487 79 480 79 476 c 0
 79 468 72 464 66 464 c 0
 61 464 56 467 54 473 c 0
 51 482 50 490 50 498 c 0
 50 584 210 562 210 623 c 0
 210 634 206 641 206 645 c 0
 206 653 212 658 218 658 c 0
 223 658 228 655 230 649 c 0
 233 640 235 631 235 623 c 0
 235 537 75 559 75 498 c 0xfc80
466 5 m 0
 473 5 479 0 479 -7 c 2
 479 -152 l 1
 533 -98 l 2
 538 -93 545 -93 550 -98 c 0
 555 -103 555 -111 550 -116 c 2
 466 -200 l 1
 383 -116 l 2
 378 -111 378 -103 383 -98 c 0
 385 -96 388 -95 391 -95 c 0
 394 -95 398 -96 400 -98 c 2
 454 -152 l 1
 454 -7 l 2
 454 0 459 5 466 5 c 0
654 800 m 1xfdc0
 654 697 569 612 466 612 c 0
 363 612 279 697 279 800 c 1
 304 800 l 1
 304 710 376 637 466 637 c 0
 556 637 629 710 629 800 c 1
 654 800 l 1xfdc0
356 361 m 0
 315 326 294 277 294 227 c 0
 294 187 307 147 335 114 c 0
 370 73 419 52 469 52 c 0
 509 52 549 65 582 93 c 0
 623 128 644 177 644 227 c 0xfea0
 644 267 630 307 602 340 c 0
 567 381 519 402 469 402 c 0
 429 402 389 389 356 361 c 0
271 259 m 1
 110 340 l 1
 121 362 l 1
 277 284 l 1
 283 305 293 325 306 343 c 1
 157 458 l 1
 172 478 l 1
 322 363 l 1
 327 369 334 375 340 380 c 0
 346 385 352 389 358 393 c 1
 247 532 l 1
 266 548 l 1
 380 406 l 1
 399 415 418 422 438 425 c 1
 388 583 l 1
 412 591 l 1
 464 427 l 1
 466 427 467 427 469 427 c 0
 505 427 540 417 571 399 c 1
 600 532 l 1
 625 527 l 1
 593 384 l 1
 603 376 613 366 622 356 c 0
 654 318 669 273 669 227 c 0
 669 170 645 114 598 74 c 0
 560 42 515 27 469 27 c 0
 412 27 356 51 316 98 c 0
 284 136 269 181 269 227 c 0
 269 238 269 248 271 259 c 1
EndSplineSet
Validated: 1
EndChar

StartChar: uE1816
Encoding: 923670 923670 138
Width: 1512
Flags: W
HStem: 100 25<957.859 1086.14> 208 25<50 500> 475 25<957.688 1019 1044 1086.31> 577 21G<1243.56 1278 1399 1434> 596 34<1278 1399> 689 15G<910 935 1019 1044 1106 1131 1243.56 1278 1399 1434>
VStem: 583 25<124 317> 697 25<124 317> 822 25<235.859 364.399> 910 25<480 689> 1019 25<500 724> 1106 25<481 662> 1197 25<235.859 363.522>
LayerCount: 2
Fore
SplineSet
1022 475 m 0xe7f8
 925 475 847 397 847 300 c 0
 847 203 925 125 1022 125 c 0
 1119 125 1197 203 1197 300 c 0
 1197 397 1119 475 1022 475 c 0xe7f8
1044 724 m 1
 1044 499 l 1
 1066 497 1087 490 1106 481 c 1
 1106 662 l 1
 1131 662 l 1
 1131 468 l 1
 1186 432 1222 370 1222 300 c 0
 1222 190 1132 100 1022 100 c 0
 912 100 822 190 822 300 c 0
 822 369 857 429 910 465 c 1
 910 689 l 1
 935 689 l 1
 935 480 l 1
 961 492 989 500 1019 500 c 1
 1019 724 l 1
 1044 724 l 1
1462 613 m 1
 1399 577 l 1xf7f8
 1399 596 l 1
 1278 596 l 1xeff8
 1278 577 l 1xf7f8
 1216 613 l 1
 1278 649 l 1
 1278 630 l 1
 1399 630 l 1xeff8
 1399 649 l 1
 1462 613 l 1
50 233 m 1
 500 233 l 1
 500 208 l 1
 50 208 l 1
 50 233 l 1
583 124 m 1
 583 317 l 1
 608 317 l 1
 608 124 l 1
 583 124 l 1
697 124 m 1
 697 317 l 1
 722 317 l 1
 722 124 l 1
 697 124 l 1
EndSplineSet
Validated: 1
EndChar

StartChar: uE1817
Encoding: 923671 923671 139
Width: 1243
Flags: W
HStem: 100 25<185.859 314.141 500 577.935> 363 18<972.153 1066.28> 475 25<191.415 314.141> 483 18<1019 1152 1174 1194> 657 19<970.332 1067.67> 700 25<500 577.935>
VStem: 50 25<235.859 363.884> 425 25<235.859 364.141> 788 25<334.621 491.307> 863 18<472.153 565.893> 1157 18<473.419 483 501 565.893> 1194 18<345 483>
LayerCount: 2
Fore
SplineSet
61 721 m 1xeff0
 148 571 l 1
 177 720 l 1
 201 715 l 1
 167 538 l 1
 193 492 l 1
 211 497 230 500 250 500 c 0
 360 500 450 410 450 300 c 0
 450 190 360 100 250 100 c 0
 140 100 50 190 50 300 c 0
 50 363 79 419 125 456 c 1
 140 533 l 1
 39 708 l 1
 61 721 l 1xeff0
159 500 m 1
 155 476 l 1
 160 479 164 481 169 483 c 1xdff0
 159 500 l 1
250 475 m 0xeff0
 161 475 75 404 75 300 c 0
 75 203 153 125 250 125 c 0
 347 125 425 203 425 300 c 0
 425 397 347 475 250 475 c 0xeff0
500 725 m 1
 672 725 813 585 813 413 c 0
 813 241 672 100 500 100 c 1
 500 125 l 1
 659 125 788 254 788 413 c 0
 788 572 659 700 500 700 c 1
 500 725 l 1
1019 676 m 0
 1105 676 1175 605 1175 519 c 0
 1175 513 1175 507 1174 501 c 1
 1194 501 l 1
 1212 501 l 1
 1212 483 l 1
 1212 345 l 1
 1194 345 l 1
 1194 483 l 1
 1171 483 l 1xdff0
 1154 414 1093 363 1019 363 c 0
 933 363 863 433 863 519 c 0
 863 605 933 676 1019 676 c 0
1019 657 m 0
 943 657 881 595 881 519 c 0
 881 443 943 381 1019 381 c 0
 1083 381 1136 425 1152 483 c 1
 1019 483 l 1
 1019 501 l 1
 1156 501 l 2
 1157 507 1157 513 1157 519 c 0
 1157 595 1095 657 1019 657 c 0
EndSplineSet
Validated: 1
EndChar

StartChar: uE1818
Encoding: 923672 923672 140
Width: 1272
Flags: W
HStem: 100 21G<50 75 400 430.41> 208 25<550 1000> 368 25<550 1034> 588 25<203.078 271.422>
VStem: 50 25<100 279.422> 400 25<100 125.879> 1083 25<124 317> 1197 25<124 317>
LayerCount: 2
Fore
SplineSet
1197 124 m 1
 1197 317 l 1
 1222 317 l 1
 1222 124 l 1
 1197 124 l 1
1083 124 m 1
 1083 317 l 1
 1108 317 l 1
 1108 124 l 1
 1083 124 l 1
550 233 m 1
 1000 233 l 1
 1000 208 l 1
 550 208 l 1
 550 233 l 1
237 613 m 0
 266 613 293 596 315 569 c 0
 337 542 357 504 373 458 c 0
 399 385 416 290 422 185 c 1
 467 351 l 1
 491 344 l 1
 425 100 l 1
 412 100 l 1
 400 100 l 1
 400 237 380 360 349 449 c 0
 333 493 316 529 296 553 c 0
 276 577 256 588 237 588 c 0
 218 588 199 577 179 553 c 0
 159 529 142 493 126 449 c 0
 95 360 75 237 75 100 c 1
 50 100 l 1
 50 239 70 366 102 458 c 0
 118 504 138 542 160 569 c 0
 182 596 208 613 237 613 c 0
988 467 m 0
 989 467 989 467 990 467 c 0
 993 467 997 466 999 464 c 2
 1082 380 l 1
 998 296 l 1
 996 294 992 292 989 292 c 0
 986 292 983 294 981 296 c 0
 979 298 977 302 977 305 c 0
 977 308 979 312 981 314 c 2
 1034 367 l 1
 550 368 l 1
 550 393 l 1
 1034 392 l 1
 981 446 l 1
 979 448 977 452 977 455 c 0
 977 458 979 462 981 464 c 0
 983 466 985 467 988 467 c 0
EndSplineSet
Validated: 1
EndChar

StartChar: uE1819
Encoding: 923673 923673 141
Width: 1353
Flags: HMW
VStem: 583 25<124 317> 697 25<124 317> 822 25<235.859 364.387> 1197 25<235.859 364.141>
LayerCount: 2
Fore
SplineSet
1222 0 m 5
 822 0 l 5
 822 25 l 5
 1222 25 l 5
 1222 0 l 5
1022 475 m 0
 925 475 847 397 847 300 c 0
 847 203 925 125 1022 125 c 0
 1119 125 1197 203 1197 300 c 0
 1197 397 1119 475 1022 475 c 0
1022 500 m 0
 1132 500 1222 410 1222 300 c 0
 1222 190 1132 100 1022 100 c 0
 912 100 822 190 822 300 c 0
 822 344 836 384 860 417 c 1
 666 673 l 1
 686 688 l 1
 872 443 l 1
 971 737 l 1
 995 729 l 1
 905 462 l 1
 938 486 978 500 1022 500 c 0
1303 672 m 1
 1240 636 l 1
 1240 656 l 1
 1119 656 l 1
 1119 636 l 1
 1057 672 l 1
 1119 709 l 1
 1119 689 l 1
 1240 689 l 1
 1240 709 l 1
 1303 672 l 1
50 233 m 1
 500 233 l 1
 500 208 l 1
 50 208 l 1
 50 233 l 1
583 124 m 1
 583 317 l 1
 608 317 l 1
 608 124 l 1
 583 124 l 1
697 124 m 1
 697 317 l 1
 722 317 l 1
 722 124 l 1
 697 124 l 1
EndSplineSet
Validated: 1
EndChar

StartChar: uE181A
Encoding: 923674 923674 142
Width: 1353
Flags: HMW
VStem: 583 25<124 317> 697 25<124 317> 822 25<235.859 364.771> 1197 25<236.065 364.141>
LayerCount: 2
Fore
SplineSet
833 721 m 1
 920 570 l 1
 949 720 l 1
 973 715 l 1
 939 537 l 1
 965 492 l 1
 982 497 999 500 1017 500 c 0
 1019 500 1020 500 1022 500 c 0
 1132 500 1222 410 1222 300 c 0
 1222 228 1184 165 1127 130 c 0
 1097 111 1060 100 1022 100 c 0
 912 100 822 190 822 300 c 0
 822 363 852 419 898 456 c 1
 913 533 l 1
 811 708 l 1
 833 721 l 1
1222 0 m 1
 822 0 l 1
 822 25 l 1
 1222 25 l 1
 1222 0 l 1
1303 672 m 1
 1282 660 1264 646 1240 636 c 1
 1240 656 l 1
 1119 656 l 1
 1119 636 l 1
 1057 672 l 1
 1119 709 l 1
 1119 689 l 1
 1240 689 l 1
 1240 709 l 1
 1303 672 l 1
50 233 m 1
 500 233 l 1
 500 208 l 1
 50 208 l 1
 50 233 l 1
583 124 m 1
 583 317 l 1
 608 317 l 1
 608 124 l 1
 583 124 l 1
697 124 m 1
 697 317 l 1
 722 317 l 1
 722 124 l 1
 697 124 l 1
1147 177 m 0
 1178 209 1197 252 1197 300 c 0
 1197 397 1119 475 1022 475 c 0
 1021 475 1020 475 1019 475 c 0
 975 474 932 456 900 425 c 0
 867 393 847 349 847 300 c 0
 847 203 925 125 1022 125 c 0
 1071 125 1115 145 1147 177 c 0
927 476 m 1
 932 479 936 481 941 483 c 1
 932 500 l 1
 927 476 l 1
EndSplineSet
Validated: 1
EndChar

StartChar: uE181B
Encoding: 923675 923675 143
Width: 856
Flags: W
HStem: 100 25<245.083 371.385> 274 25<289.863 360.56> 475 25<246.981 373.575> 491 24<573.25 596.16 778.56 801.042> 525 25<235.992 382.054> 567 20G<674 699.206> 736 25<79 539>
VStem: 110 24<237.615 362.556> 284 50<-175 66> 484 25<236.09 362.788> 675 25<490 587>
LayerCount: 2
Fore
SplineSet
575 515 m 1xdfe0
 675 490 l 1
 674 587 l 1
 699 587 l 1
 700 490 l 1
 799 515 l 1
 806 491 l 1
 708 466 l 1
 772 380 l 1
 751 365 l 1
 687 453 l 1
 623 364 l 1
 602 379 l 1
 666 466 l 1
 569 491 l 1
 575 515 l 1xdfe0
284 -175 m 1
 284 66 l 1
 334 66 l 1
 334 -175 l 1
 284 -175 l 1
382 459 m 0
 359 470 334 475 310 475 c 0xefe0
 258 475 208 452 175 412 c 1
 210 364 238 337 265 322 c 0
 294 306 322 302 362 299 c 1
 360 274 l 1
 319 277 285 282 252 301 c 0
 222 318 194 345 160 391 c 1
 157 385 153 379 150 373 c 0
 139 349 134 324 134 300 c 0
 134 234 172 170 236 141 c 0
 260 130 285 125 309 125 c 0
 375 125 439 163 468 227 c 0
 479 251 484 276 484 300 c 0
 484 366 446 430 382 459 c 0
393 482 m 0
 466 448 509 376 509 300 c 0
 509 272 503 244 491 217 c 0
 457 144 384 100 308 100 c 0
 281 100 253 106 226 118 c 0
 153 152 110 225 110 301 c 0
 110 329 116 357 128 384 c 0
 162 457 234 500 310 500 c 0
 338 500 366 494 393 482 c 0
309 550 m 0
 422 550 516 630 539 736 c 5
 386 736 232 736 79 736 c 1
 102 630 196 550 309 550 c 0
309 525 m 0
 179 525 71 622 52 747 c 2
 50 761 l 1
 569 761 l 1
 567 747 l 2
 548 622 439 525 309 525 c 0
EndSplineSet
Validated: 1
EndChar
